<?xml version="1.0" standalone="no"?>
<!DOCTYPE svg PUBLIC "-//W3C//DTD SVG 20010904//EN"
 "http://www.w3.org/TR/2001/REC-SVG-20010904/DTD/svg10.dtd">
<svg version="1.0" xmlns="http://www.w3.org/2000/svg"
 width="300.000000pt" height="243.000000pt" viewBox="0 0 300.000000 243.000000"
 preserveAspectRatio="xMidYMid meet">
<metadata>
Created by potrace 1.10, written by Peter Selinger 2001-2011
</metadata>
<g transform="translate(0.000000,243.000000) scale(0.050000,-0.050000)"
fill="#839dbf" stroke="none">
<path d="M1910 4667 c-72 -19 -130 -90 -130 -158 0 -45 -20 -85 -70 -138 -76
-81 -77 -129 -1 -80 56 37 81 11 42 -43 -16 -21 -23 -61 -17 -91 5 -28 1 -58
-9 -64 -24 -15 -8 -113 19 -113 10 0 37 10 59 21 43 23 19 79 -34 79 -15 0
-21 15 -15 40 13 48 76 23 96 -39 6 -21 51 -61 100 -90 143 -84 228 -254 171
-344 -20 -32 -21 -31 -10 13 10 42 -1 35 -68 -40 -45 -49 -82 -97 -82 -105 -1
-8 -14 -15 -31 -15 -16 0 -30 -9 -30 -20 0 -12 -15 -11 -38 4 -31 19 -46 18
-72 -4 -29 -24 -38 -22 -67 16 -23 31 -46 40 -78 31 -68 -18 -60 -98 14 -136
68 -35 121 -40 121 -11 0 11 23 20 50 20 62 0 74 -206 18 -318 -43 -86 -27
-283 24 -312 76 -43 190 -179 184 -219 -7 -46 -76 -69 -76 -25 0 40 -165 254
-190 246 -34 -11 -11 -80 41 -123 42 -34 49 -58 49 -155 0 -88 7 -114 30 -114
17 0 30 -18 30 -40 0 -41 76 -56 148 -28 69 27 33 602 -44 693 -23 27 -27 74
-19 213 5 101 2 187 -9 198 -12 12 23 63 94 137 117 121 129 161 80 275 -12
27 -10 34 7 24 42 -26 30 236 -14 275 -49 44 -70 42 -57 -7 6 -22 2 -35 -8
-29 -10 6 -27 -9 -37 -35 -10 -25 -19 -37 -20 -26 -1 18 -33 26 -146 36 -46 3
-44 19 4 49 26 16 43 17 52 4 8 -14 24 -12 45 5 24 19 28 20 17 1 -9 -14 -6
-25 6 -25 11 0 21 23 21 51 0 27 13 55 30 62 16 6 25 19 19 28 -6 10 12 63 40
118 99 195 -31 363 -239 308z m128 -125 c15 -10 21 -27 14 -39 -18 -28 -72 -6
-72 29 0 32 18 35 58 10z m-138 -132 c26 -27 63 -50 82 -50 63 0 60 -35 -7
-88 -36 -28 -54 -52 -40 -52 14 0 25 -9 25 -20 0 -12 -26 -9 -65 7 -63 25 -65
30 -65 140 0 128 5 132 70 63z"/>
<path d="M4840 4559 c-105 -56 -120 -74 -120 -152 0 -69 118 -267 160 -267 79
0 2 -244 -89 -281 -41 -16 -41 -16 1 -18 78 -2 180 130 157 202 -10 32 -5 39
24 34 20 -4 53 9 73 29 22 22 51 31 75 24 22 -7 39 -3 39 9 0 11 18 21 40 21
22 0 41 11 41 25 1 14 10 5 20 -20 12 -30 34 -45 69 -45 29 0 76 -22 106 -50
29 -27 43 -50 30 -50 -13 0 -29 8 -35 18 -20 33 -121 35 -154 3 -46 -44 -59
-181 -18 -181 17 0 43 -18 57 -41 25 -39 26 -39 74 15 l50 56 82 -90 c149
-164 212 -249 225 -302 12 -51 120 -98 151 -67 22 23 -207 409 -328 553 -26
31 -52 72 -59 91 -6 20 -36 48 -66 61 -178 82 -224 122 -225 198 -1 184 -217
312 -380 225z m84 -107 c12 8 11 -5 -3 -30 -25 -46 -81 -57 -81 -16 0 36 47
82 56 55 4 -12 17 -16 28 -9z m154 -170 c56 -78 22 -110 -84 -78 -70 22 -72
25 -41 59 26 29 27 37 5 37 -23 1 -22 4 2 20 49 32 75 23 118 -38z"/>
<path d="M1118 4534 c-189 -127 -146 -528 49 -458 37 14 83 19 100 12 18 -7
33 -3 33 8 0 12 5 34 11 50 7 18 -4 33 -30 39 -22 6 -41 3 -41 -7 0 -39 -116
-18 -143 27 -48 77 -26 142 34 102 34 -22 57 -26 74 -11 14 11 66 23 115 27
135 11 155 57 65 153 -106 113 -166 126 -267 58z"/>
<path d="M3973 4447 c-25 -25 -13 -87 17 -87 17 0 30 -9 30 -20 0 -21 -97 -16
-135 7 -13 8 -18 27 -12 44 7 18 -1 29 -21 29 -111 0 -83 -341 33 -403 38 -20
37 -24 -31 -85 -66 -59 -69 -65 -36 -86 65 -41 111 -349 64 -424 -37 -58 -242
-55 -242 3 0 51 57 76 171 76 37 0 42 13 45 110 l3 109 -47 -30 c-36 -24 -59
-26 -100 -11 -29 11 -60 20 -68 18 -44 -6 -41 9 14 54 40 34 75 48 100 40 21
-7 44 -3 52 8 15 25 -58 56 -118 49 -23 -3 -62 -5 -86 -6 -24 -1 -67 -22 -96
-47 l-52 -45 24 -180 c13 -99 22 -198 20 -220 -2 -22 -7 -173 -11 -335 -7
-287 8 -372 49 -266 53 140 108 -24 62 -188 -18 -65 -65 -80 -60 -18 10 107 0
132 -33 88 -27 -37 -29 -35 -29 25 0 41 -10 64 -27 64 -16 0 -28 22 -28 55 0
30 -10 117 -21 193 -13 83 -14 156 -3 185 10 26 12 47 5 47 -7 0 3 16 21 37
36 39 26 67 -19 50 -15 -6 -22 -20 -15 -31 7 -12 -3 -15 -27 -8 -52 17 -112
-50 -101 -111 8 -42 11 -40 25 18 8 36 24 72 36 79 13 8 16 -5 7 -36 -7 -26
-13 -68 -13 -93 0 -27 -12 -45 -30 -45 -19 0 -30 -19 -30 -51 0 -37 9 -49 35
-45 20 4 35 -7 35 -24 0 -16 -11 -28 -25 -25 -34 7 -13 -134 38 -256 40 -95
39 -125 -6 -344 -22 -106 -20 -123 21 -211 50 -106 66 -223 62 -444 -3 -187
31 -253 98 -192 23 21 42 57 43 80 0 23 13 76 28 117 25 72 24 76 -19 87 -26
6 -52 26 -58 45 -7 18 -17 43 -23 55 -15 31 113 10 153 -25 56 -49 75 7 68
207 -4 101 -12 193 -18 203 -7 10 -3 64 7 119 11 55 25 243 33 417 7 174 24
362 38 417 l25 100 87 0 c95 0 106 25 43 95 -17 19 -28 39 -23 43 13 14 89
-55 103 -93 8 -19 31 -35 52 -35 46 0 103 -80 103 -145 0 -68 257 -315 327
-315 29 0 53 10 53 21 0 12 8 16 19 10 10 -6 24 -2 31 9 7 11 20 16 30 10 41
-25 87 56 47 85 -32 23 -41 22 -70 -14 -36 -45 -157 -39 -157 8 0 34 -90 114
-121 107 -14 -3 -36 14 -49 38 -12 24 -44 62 -71 84 -54 45 -16 58 71 24 37
-15 90 -6 175 28 57 23 43 -59 -15 -90 -65 -35 -63 -60 9 -129 42 -41 69 -52
95 -40 32 14 42 18 75 27 5 1 -4 40 -21 87 -16 47 -34 166 -40 265 -5 99 -14
200 -19 224 -5 24 0 49 11 56 11 7 21 46 22 86 2 41 7 58 12 39 5 -19 33 -40
62 -46 30 -6 82 -25 116 -42 35 -17 80 -28 100 -24 21 3 50 -1 64 -11 17 -10
37 -3 55 21 41 54 36 67 -31 70 -98 5 -110 7 -120 17 -5 6 -47 35 -92 65 -45
31 -107 83 -138 115 -62 65 -110 78 -110 30 0 -16 -9 -30 -21 -30 -11 0 -44
-23 -72 -51 -45 -45 -55 -48 -84 -23 -18 16 -44 25 -58 20 -14 -5 -25 0 -25
12 0 12 9 22 19 22 11 0 15 13 8 30 -6 16 -17 26 -24 22 -7 -4 -15 25 -17 65
-2 40 -13 75 -25 79 -12 4 -21 16 -21 27 0 11 17 14 37 8 24 -8 36 -2 36 19 0
16 -5 30 -12 30 -7 0 -24 32 -38 70 -14 39 -34 70 -44 70 -11 0 -19 14 -19 32
0 21 -11 28 -32 20 -21 -8 -35 1 -42 28 -11 39 -47 53 -73 27z m7 -176 c0 -35
96 -137 146 -157 47 -18 43 -43 -14 -73 -63 -34 -152 -12 -152 36 0 20 -7 43
-15 51 -51 51 -60 172 -13 172 29 0 48 -12 48 -29z m77 -317 c27 -33 -7 -74
-59 -74 -35 0 -39 30 -11 75 20 32 43 32 70 -1z m123 -107 c32 -19 62 -51 67
-72 6 -22 5 -34 -2 -27 -17 17 -85 -49 -85 -82 0 -20 13 -25 43 -15 28 9 38 6
28 -9 -22 -36 27 -25 88 20 85 63 148 -12 73 -87 -15 -15 -26 -62 -25 -106 3
-88 -50 -120 -95 -58 -23 32 -27 32 -38 2 -12 -30 -18 -30 -81 -1 -70 34 -90
116 -45 185 13 21 7 24 -25 14 -51 -16 -58 19 -8 38 33 13 33 15 -1 41 -20 14
-28 32 -17 38 36 22 1 94 -39 81 -46 -14 -48 -2 -7 40 41 40 99 39 169 -2z
m291 -85 c-14 -24 -110 -40 -122 -21 -11 19 26 35 87 37 26 1 41 -6 35 -16z
m-783 -528 c17 -29 15 -40 -11 -55 -18 -10 -29 -35 -24 -54 17 -66 -44 -123
-80 -75 -26 35 -26 44 -1 72 25 28 25 35 -2 58 -28 23 -28 30 3 64 41 44 84
40 115 -10z m-75 -783 c-6 -17 -2 -35 9 -42 13 -8 10 -28 -7 -56 -17 -27 -27
-98 -26 -188 2 -137 -17 -187 -41 -110 -7 19 -22 56 -34 81 -16 33 -15 63 2
111 13 36 24 79 24 95 0 42 47 138 67 138 10 0 12 -13 6 -29z m-161 -201 c-28
-118 -29 -119 -33 -40 -5 119 2 177 28 208 37 45 39 -29 5 -168z"/>
<path d="M4142 3565 c0 -20 5 -25 11 -11 8 19 20 19 53 -2 39 -25 49 -23 82
10 38 37 38 38 -55 38 -76 0 -93 -6 -91 -35z"/>
<path d="M1520 4380 c0 -11 -10 -18 -22 -15 -13 3 -27 -6 -32 -20 -5 -14 4
-25 21 -25 17 0 37 -10 45 -23 10 -16 0 -20 -32 -11 -88 23 -211 -179 -183
-302 9 -42 14 -112 11 -155 -4 -44 -7 -95 -8 -114 -2 -19 -11 -39 -20 -45 -10
-6 -13 -25 -7 -41 6 -16 0 -43 -13 -59 -20 -24 -19 -30 7 -30 17 0 47 -21 66
-46 l34 -45 49 45 c28 25 65 46 84 46 19 0 48 16 65 35 39 45 66 165 37 165
-12 0 -40 18 -62 40 -61 61 -136 15 -78 -47 56 -60 9 -153 -77 -153 -20 0 -26
7 -15 15 28 21 39 205 12 205 -30 0 -28 74 3 93 13 8 74 18 135 21 162 9 220
47 114 73 -49 12 -214 159 -214 190 0 10 34 17 75 15 71 -2 75 2 81 63 4 36
-2 65 -13 65 -10 0 -25 16 -32 35 -11 28 -8 30 12 10 34 -34 70 -32 84 5 9 23
-4 30 -58 30 -38 0 -69 -9 -69 -20z"/>
<path d="M721 4068 c-38 -16 -85 -49 -104 -74 -19 -24 -89 -115 -155 -202
l-120 -158 35 -52 c19 -29 45 -76 58 -106 13 -30 46 -69 73 -86 27 -18 55 -58
62 -89 11 -51 16 -54 61 -34 78 37 61 86 -26 74 -14 -1 -25 19 -25 49 0 29
-10 72 -23 96 -95 177 35 331 264 316 131 -8 176 159 69 253 -61 52 -76 54
-169 13z m125 -56 c14 -35 -2 -52 -49 -52 -20 0 -35 -8 -32 -18 3 -10 -2 -19
-10 -20 -30 -3 -145 -68 -159 -89 -8 -12 -19 -17 -24 -11 -20 19 78 135 148
176 83 49 112 52 126 14z"/>
<path d="M4278 4032 c31 -37 102 -56 90 -23 -7 17 10 22 56 16 44 -5 57 -2 40
10 -47 33 -213 30 -186 -3z"/>
<path d="M5050 3965 c-80 -20 -111 -101 -58 -154 28 -28 39 -26 120 32 138
100 106 165 -62 122z"/>
<path d="M1082 3884 c-1 -43 9 -69 30 -78 32 -12 67 23 68 69 0 39 -60 29 -62
-10 -2 -19 -10 -8 -18 25 l-15 60 -3 -66z"/>
<path d="M1688 3877 c-4 -7 -16 -68 -25 -135 -19 -140 14 -160 139 -84 48 30
76 34 124 20 69 -19 91 -5 128 83 23 56 29 53 -139 62 -47 2 -69 8 -50 12 40
9 48 44 10 46 -134 8 -180 7 -187 -4z"/>
<path d="M5140 3749 c0 -22 -12 -28 -38 -19 -67 21 -169 -122 -126 -176 10
-13 24 -55 31 -94 l12 -70 -44 80 c-35 66 -44 73 -51 40 -11 -50 34 -307 56
-320 30 -18 46 34 18 54 -21 14 -16 17 17 10 39 -9 42 -5 23 30 -28 53 -17 60
33 19 53 -43 71 -93 44 -120 -16 -16 -30 -15 -52 2 -24 20 -28 19 -19 -5 6
-18 -13 -44 -47 -65 -31 -19 -57 -47 -57 -62 0 -15 -18 -43 -40 -63 -44 -40
-55 -81 -15 -58 15 8 18 7 8 -4 -9 -10 -25 -19 -35 -20 -10 -2 -22 -5 -28 -8
-5 -3 -18 -6 -29 -7 -10 -2 -44 -31 -75 -65 -31 -34 -74 -72 -96 -84 -35 -20
-28 -23 46 -23 55 -1 89 9 96 27 29 75 167 57 153 -20 l-11 -53 -163 13 c-102
8 -186 5 -221 -8 -59 -22 -150 33 -150 92 0 14 -17 31 -37 37 -40 13 -263 223
-263 248 0 12 -145 83 -172 83 -33 0 -68 -66 -66 -124 1 -36 -6 -167 -15 -291
-10 -124 -11 -225 -2 -225 8 0 11 -34 5 -75 -20 -147 -24 -535 -6 -600 10 -36
11 -77 3 -90 -9 -14 -16 -38 -16 -55 -1 -16 -26 -41 -56 -56 -30 -14 -55 -39
-55 -55 0 -42 36 -36 65 11 13 22 36 40 50 40 14 0 25 9 25 20 0 11 20 20 45
20 25 1 68 18 95 40 55 43 80 50 80 21 0 -10 -16 -23 -35 -29 -19 -7 -101 -75
-181 -152 -129 -124 -157 -142 -238 -150 -54 -6 -102 -23 -119 -45 -41 -51
-147 -260 -147 -288 0 -13 -49 -125 -110 -248 -127 -257 -126 -254 -61 -297
54 -35 191 -44 191 -12 0 11 16 20 37 20 51 0 123 83 123 143 0 54 29 157 65
232 27 55 5 82 -41 49 -19 -13 -55 -33 -81 -44 -40 -18 -45 -30 -35 -95 15
-95 -67 -175 -122 -120 -27 27 -26 37 7 87 20 30 46 83 58 117 12 33 32 59 46
56 14 -4 21 3 14 13 -10 17 19 97 96 260 13 27 41 51 63 54 22 3 58 8 80 12
24 4 38 -4 35 -20 -11 -53 42 -83 83 -47 30 26 26 11 -17 -74 -29 -58 -51
-126 -48 -150 7 -53 -19 -98 -46 -81 -20 12 -97 -46 -97 -73 0 -8 23 -20 50
-27 28 -7 50 -22 50 -32 0 -58 86 -12 142 75 56 87 60 104 47 205 -7 61 -13
126 -13 145 1 19 -7 39 -17 46 -10 6 17 68 61 137 44 70 80 136 80 147 0 61
188 180 307 193 60 7 63 11 58 84 -17 268 -14 341 19 405 19 37 41 100 48 140
7 40 20 87 29 104 12 24 -4 43 -68 78 -124 67 -234 234 -213 324 9 37 17 51
18 31 3 -50 61 -134 94 -134 15 0 51 -37 80 -83 101 -160 132 -177 305 -164
227 16 383 10 383 -17 0 -10 9 -13 20 -6 11 7 26 -1 32 -18 10 -27 15 -27 41
-1 39 38 69 37 53 -3 -9 -26 -5 -28 26 -12 107 55 159 74 206 74 40 0 52 10
53 44 0 61 22 77 61 45 28 -24 36 -22 59 9 14 20 36 30 47 23 11 -7 43 36 71
95 55 117 56 86 -12 414 -10 50 -24 117 -31 150 -6 33 -24 78 -39 99 -15 22
-27 54 -27 71 0 81 -266 300 -366 300 -72 0 -94 -7 -94 -31z m125 -89 c23 -22
35 -40 25 -40 -10 0 8 -26 38 -58 31 -32 50 -69 43 -81 -27 -42 -26 -190 1
-231 17 -27 20 -50 7 -70 -10 -17 -19 -54 -19 -84 0 -62 58 -132 80 -96 10 16
18 13 27 -9 7 -19 4 -28 -7 -21 -11 7 -21 -4 -22 -24 -2 -33 -3 -33 -12 -1
-12 46 -66 -3 -66 -60 0 -20 -11 -49 -25 -64 -20 -22 -20 -24 2 -11 21 11 24
5 14 -28 -18 -57 96 -41 163 22 l45 42 -23 -68 c-12 -37 -27 -81 -32 -98 -8
-24 -12 -23 -19 7 -8 33 -11 33 -44 4 -31 -28 -38 -29 -60 -2 -20 23 -34 25
-66 9 -30 -17 -44 -16 -55 2 -12 19 -18 19 -30 0 -11 -19 -19 -18 -32 3 -13
21 -23 19 -47 -13 -28 -38 -30 -37 -23 25 4 35 -1 60 -9 54 -9 -5 -21 -1 -28
9 -7 11 12 16 44 12 52 -6 55 -2 60 83 5 82 2 89 -35 77 -22 -7 -40 -5 -40 4
0 25 120 159 121 136 1 -11 10 -2 19 20 16 37 17 36 20 -10 l3 -50 21 45 c27
56 -12 112 -67 94 -50 -16 -47 24 3 51 47 25 56 90 10 73 -20 -8 -30 0 -30 24
0 20 -6 42 -12 49 -16 15 -68 -35 -68 -65 0 -32 -34 -25 -47 9 -23 58 23 134
72 122 25 -7 34 -6 20 0 -14 6 -20 20 -13 31 7 12 22 10 38 -3 22 -18 27 -10
26 44 -2 87 -29 136 -76 136 -20 0 -43 9 -50 20 -23 38 111 20 155 -20z m277
-225 c73 -85 81 -125 9 -48 -39 43 -71 81 -71 85 0 20 27 4 62 -37z m-22 -225
c0 -27 17 -57 37 -68 27 -15 34 -36 27 -84 l-9 -64 -29 53 c-15 30 -23 62 -17
72 6 10 2 21 -8 24 -11 4 -26 38 -34 75 -9 49 -7 64 10 54 13 -8 23 -36 23
-62z m-1525 -360 c-11 -77 -18 -194 -17 -260 18 -747 14 -850 -32 -850 -48 0
-83 106 -58 173 7 18 13 223 13 455 0 512 11 647 56 657 52 11 60 -25 38 -175z
m1105 132 c0 -10 -18 -39 -40 -65 -35 -41 -38 -42 -26 -7 12 37 10 38 -24 10
-36 -29 -36 -28 -1 25 34 52 91 76 91 37z m580 -163 c0 -12 9 -16 20 -9 12 7
10 -9 -3 -39 -27 -59 -27 -59 -45 14 -7 33 -4 55 8 55 11 0 20 -10 20 -21z
m-1560 -194 c0 -18 25 -59 55 -90 67 -70 78 -286 18 -352 -18 -20 -33 -61 -33
-91 0 -31 -9 -49 -20 -42 -11 7 -20 -9 -20 -37 0 -27 8 -53 17 -56 18 -7 46
-177 29 -177 -18 0 -95 106 -99 138 -25 169 -28 279 -9 291 12 7 23 42 24 77
0 35 6 53 11 39 14 -35 40 -31 55 8 8 19 -1 42 -22 57 -35 26 -56 299 -21 277
8 -5 15 -24 15 -42z"/>
<path d="M907 3627 c-39 -45 -51 -48 -116 -30 -70 19 -75 17 -112 -43 -46 -76
-47 -87 -12 -108 61 -36 56 -186 -7 -186 -67 0 -78 -43 -44 -174 30 -113 30
-141 2 -307 -55 -332 -33 -759 39 -759 23 -1 26 -5 8 -16 -18 -12 -15 -32 15
-85 21 -38 44 -85 52 -104 7 -21 34 -35 65 -35 52 -1 171 -36 216 -65 13 -8
109 -16 214 -17 l191 -1 60 -129 c62 -132 74 -267 25 -284 -32 -10 -29 -77 5
-90 45 -18 72 29 72 127 0 63 13 110 40 144 43 55 52 95 21 95 -11 0 -31 38
-44 85 -32 106 -76 147 -111 101 -20 -25 -31 -27 -53 -8 -30 24 -46 29 -238
67 -63 12 -115 29 -115 37 0 8 -45 20 -99 28 -112 15 -158 51 -113 88 21 18
35 16 60 -8 29 -29 35 -29 75 9 25 23 38 41 31 41 -7 0 6 34 30 75 23 41 56
102 72 135 17 33 43 75 58 93 25 29 20 37 -40 75 -75 46 -146 55 -158 19 -10
-29 -89 -5 -103 32 -60 157 265 291 388 160 56 -60 101 -62 136 -7 25 41 27
39 67 -40 46 -95 75 -101 143 -33 37 37 42 51 21 59 -37 14 -36 92 1 92 17 0
25 -12 19 -28 -6 -15 -2 -33 9 -40 40 -25 41 50 0 84 -23 18 -52 44 -64 55
-13 12 -40 28 -60 35 -22 9 -33 26 -26 44 7 17 5 31 -3 32 -8 1 -38 5 -67 10
-47 8 -53 2 -61 -60 -9 -78 62 -135 114 -92 30 25 90 6 90 -30 0 -32 -96 -52
-106 -22 -5 15 -19 12 -43 -7 -35 -30 -126 38 -103 76 19 30 -86 59 -110 31
-27 -32 -98 -38 -98 -7 0 11 27 25 60 32 40 8 60 24 60 48 0 54 138 160 191
147 32 -8 46 0 54 29 12 47 -43 79 -68 39 -12 -20 -21 -20 -39 -2 -19 19 -12
30 29 48 155 71 -16 420 -217 443 -140 16 -210 -37 -117 -87 l53 -28 -78 -23
c-122 -37 -154 -34 -142 14 9 34 6 37 -18 18 -15 -13 -28 -36 -28 -51 0 -16
-9 -28 -19 -28 -11 0 -43 -50 -72 -111 l-53 -110 54 -71 c30 -39 50 -75 44
-80 -12 -13 -134 153 -134 183 0 13 13 35 30 49 16 13 25 33 19 42 -6 10 -2
18 10 18 11 0 21 19 21 42 0 25 16 46 40 52 41 11 50 29 27 52 -7 8 -25 4 -40
-9 -21 -17 -27 -15 -27 9 0 44 55 94 106 96 117 6 171 15 206 34 21 11 65 16
98 11 46 -8 53 -5 30 11 -16 12 -49 22 -72 22 -23 0 -66 23 -96 50 -67 62 -90
61 -145 -3z m383 -217 c0 -22 9 -53 19 -70 27 -42 31 -80 8 -80 -10 0 -28 27
-40 60 -15 43 -34 60 -67 60 -37 0 -44 8 -36 41 15 57 116 47 116 -11z m-155
-104 c-44 -11 -45 -41 -2 -50 56 -10 50 -96 -6 -96 -39 0 -47 -10 -47 -62 l0
-62 -65 38 c-73 43 -85 92 -25 103 55 10 88 43 42 43 -20 0 -31 11 -27 25 5
14 25 22 45 18 25 -4 32 3 23 25 -9 25 1 31 43 30 33 -2 41 -6 19 -12z m183
-191 c17 -44 -20 -115 -61 -115 -25 0 -20 75 8 120 31 50 33 50 53 -5z m-344
-186 c17 -17 38 -60 46 -95 8 -35 22 -80 30 -99 21 -52 -36 -64 -140 -30 l-90
30 2 -63 c0 -34 6 -51 11 -37 27 66 40 14 18 -71 -26 -97 -12 -184 30 -184 13
0 16 -17 9 -40 -8 -25 0 -53 19 -72 30 -29 30 -37 2 -80 -17 -25 -31 -64 -31
-86 0 -22 -9 -45 -20 -52 -11 -7 -20 -28 -20 -46 0 -19 -18 -46 -40 -59 -33
-21 -40 -20 -40 5 0 16 -9 30 -20 30 -26 0 -26 74 -1 83 20 7 31 461 17 684
-10 163 125 275 218 182z"/>
<path d="M4569 3619 c-7 -12 -10 -24 -6 -26 4 -2 46 -31 94 -63 74 -49 92 -54
126 -33 22 14 57 19 78 13 27 -9 39 -3 39 17 0 29 -22 36 -185 65 -42 7 -80
21 -86 30 -15 24 -44 23 -60 -3z"/>
<path d="M1545 3036 c7 -18 19 -65 26 -105 16 -87 34 -101 74 -56 40 47 58
145 23 132 -13 -6 -50 6 -80 26 -50 33 -55 33 -43 3z"/>
<path d="M1700 2489 c0 -51 -59 -124 -111 -137 -28 -7 -50 -28 -50 -47 -4
-113 -24 -238 -40 -254 -51 -51 -11 -211 53 -211 60 0 60 12 -4 110 l-51 80
61 -65 c34 -36 62 -83 62 -105 0 -26 13 -40 38 -40 83 0 101 -96 41 -225 -21
-45 -20 -75 1 -164 15 -62 21 -159 15 -227 l-11 -119 73 -23 c89 -27 365 34
311 69 -25 16 -26 31 -7 85 38 107 -8 595 -69 729 -26 58 -67 149 -91 202 -48
105 -42 138 15 87 87 -79 344 -111 344 -43 0 55 -138 116 -212 94 -87 -27
-141 -13 -156 42 -8 30 -17 36 -28 18 -15 -23 -144 118 -144 159 0 9 -9 16
-20 16 -11 0 -20 -14 -20 -31z m48 -334 c3 -14 16 -56 29 -94 27 -83 23 -89
-44 -59 -41 19 -53 39 -53 88 0 82 51 131 68 65z m155 -440 c2 -14 7 -52 11
-85 19 -145 15 -389 -7 -411 -18 -18 -27 -1 -36 74 -7 53 -21 126 -33 163 -21
67 -9 175 26 218 11 13 14 34 7 45 -8 12 -4 21 8 21 11 0 22 -11 24 -25z"/>
<path d="M5454 2433 c-12 -32 -19 -33 -46 -11 -27 22 -36 21 -59 -10 -34 -47
-208 -71 -210 -30 -1 16 -9 10 -18 -12 -22 -54 -6 -74 46 -58 24 8 66 17 93
20 159 17 227 49 216 101 -7 36 -8 35 -22 0z"/>
<path d="M5547 2406 c7 -37 3 -70 -9 -77 -12 -8 -17 -31 -12 -52 6 -21 -2 -50
-17 -65 -24 -24 -23 -30 5 -41 22 -8 26 -19 13 -32 -14 -14 -39 -13 -77 1 -44
17 -63 15 -89 -9 -19 -17 -45 -31 -58 -31 -12 0 -23 -7 -23 -15 0 -25 -124
-12 -203 21 -76 32 -98 70 -88 154 3 28 7 62 8 77 2 16 16 22 35 15 20 -8 28
-3 23 13 -4 14 -36 28 -70 31 -62 6 -63 4 -114 -156 -72 -228 -64 -800 12
-800 28 0 45 -4 92 -22 35 -13 49 -8 67 25 16 30 16 38 0 28 -12 -7 -22 -4
-22 8 0 11 -13 21 -30 21 -55 0 -31 37 40 63 73 26 104 117 40 117 -16 0 -30
-9 -30 -20 0 -11 -13 -20 -30 -20 -32 0 -42 34 -60 210 -7 66 -17 135 -22 153
-14 48 70 123 105 94 15 -12 22 -29 16 -38 -14 -23 66 -64 92 -48 11 7 74 12
139 12 65 -1 124 8 131 18 6 10 -5 14 -25 8 -21 -6 -17 0 9 13 34 18 51 18 74
-1 33 -28 21 -70 -13 -48 -14 8 -18 -3 -10 -35 6 -26 -1 -70 -17 -98 l-28 -50
4 70 c5 65 1 70 -59 76 -74 7 -98 -24 -118 -158 -7 -49 -24 -101 -37 -118 -26
-32 -29 -195 -5 -234 8 -13 5 -29 -7 -37 -15 -9 -17 -48 -7 -116 17 -121 22
-173 25 -289 2 -48 11 -81 21 -75 23 14 105 -87 91 -111 -19 -31 -42 -20 -66
33 -34 75 -68 40 -55 -56 11 -76 58 -175 84 -175 77 0 90 41 78 251 -8 142 -4
222 12 252 26 50 50 357 31 407 -12 30 -17 30 -57 1 -57 -39 -76 -39 -76 0 0
19 14 29 35 26 51 -9 85 19 85 68 0 64 84 176 122 164 18 -5 41 2 52 16 28 34
45 135 23 135 -10 0 -4 26 12 59 52 100 46 355 -9 408 l-45 43 12 -64z"/>
<path d="M1240 2400 c22 -14 23 -19 4 -20 -34 0 -11 -83 29 -106 15 -9 23 -25
16 -35 -6 -11 3 -19 21 -19 18 0 27 -9 20 -20 -7 -12 -21 -16 -30 -10 -9 6
-24 0 -32 -13 -26 -42 88 1 140 53 42 42 45 50 15 50 -60 0 -119 55 -84 79 38
24 28 32 -59 48 -49 9 -61 7 -40 -7z"/>
<path d="M1226 2082 c5 -71 25 -81 44 -22 7 22 21 35 31 29 11 -6 19 -2 19 10
0 11 -8 21 -18 21 -10 0 -33 5 -50 12 -24 9 -30 -1 -26 -50z"/>
<path d="M1320 1985 c-27 -5 -57 -21 -66 -37 -13 -23 -24 -23 -65 4 -43 29
-49 29 -49 2 0 -31 53 -63 93 -57 13 2 59 -4 103 -14 l79 -18 -5 62 c-5 66
-14 72 -90 58z"/>
<path d="M770 1665 c3 -41 16 -101 28 -133 13 -31 28 -90 34 -130 15 -105 23
-123 54 -111 16 6 42 -10 60 -38 28 -43 29 -51 3 -61 -36 -14 -38 -72 -2 -72
15 0 37 -22 49 -50 19 -42 37 -50 108 -50 65 0 79 5 60 24 -29 29 -32 103 -4
86 12 -7 16 -20 10 -29 -17 -28 47 -41 100 -21 95 36 -21 134 -127 107 -50
-13 -57 8 -13 41 34 26 21 50 -55 98 -30 19 -55 52 -55 72 0 48 -92 109 -144
95 -35 -9 -39 -3 -30 53 6 43 -4 86 -30 129 -49 82 -52 81 -46 -10z"/>
<path d="M880 1691 c0 -8 14 -27 30 -44 17 -16 30 -57 30 -91 0 -48 6 -56 26
-39 20 16 38 14 71 -9 38 -27 47 -27 73 -1 50 50 34 85 -50 111 -44 13 -79 30
-77 38 5 38 -6 51 -22 25 -15 -24 -23 -24 -49 -2 -18 14 -32 20 -32 12z"/>
<path d="M1288 1578 c-19 -21 -47 -38 -62 -38 -16 0 -23 -8 -17 -19 6 -10 -7
-24 -29 -31 -22 -7 -49 -29 -60 -49 -29 -55 35 -72 88 -24 23 21 74 45 112 53
112 23 152 68 95 108 -63 44 -87 44 -127 0z"/>
<path d="M1326 1406 c-57 -11 -94 -57 -78 -99 10 -26 19 -28 37 -10 12 12 40
23 61 23 21 0 61 18 89 40 35 28 41 40 19 40 -17 0 -43 3 -57 7 -15 4 -47 4
-71 -1z"/>
<path d="M4849 1345 c7 -41 22 -102 32 -135 10 -33 33 -114 51 -180 19 -66 50
-151 70 -190 54 -106 98 -284 98 -398 0 -124 34 -134 124 -38 81 87 9 313 -89
281 -30 -10 -56 95 -34 137 16 30 11 59 -23 128 -37 74 -40 94 -18 120 22 26
19 38 -14 76 -43 46 -88 125 -127 219 -36 87 -87 72 -70 -20z"/>
<path d="M1380 1201 c0 -48 39 -75 60 -40 10 15 5 37 -10 52 -37 37 -50 34
-50 -12z"/>
<path d="M1543 1125 c-2 -14 -14 -25 -29 -25 -22 0 -94 -67 -94 -89 0 -4 16
-13 35 -19 19 -6 -8 -7 -60 -2 -154 15 -194 -19 -110 -93 l45 -39 -45 22 c-40
19 -45 16 -45 -28 0 -73 20 -111 52 -99 16 7 28 -1 28 -16 0 -44 119 -130 165
-120 28 6 15 -33 -15 -44 -42 -16 -37 -60 10 -103 22 -20 40 -57 40 -83 0 -26
-18 -65 -40 -87 -22 -22 -40 -31 -40 -20 0 11 -14 20 -31 20 -17 0 -26 9 -19
20 27 44 27 103 -1 113 -16 6 -29 33 -29 58 0 70 -64 195 -83 164 -22 -34 -21
-182 1 -206 28 -31 78 -211 92 -334 l13 -115 78 0 c44 0 79 9 79 20 0 11 -8
20 -17 20 -21 0 -116 174 -102 186 97 85 152 20 145 -171 -2 -45 7 -55 46 -55
57 0 55 -6 19 97 -31 89 -33 102 -31 264 2 122 -29 228 -60 209 -11 -7 -20 -4
-20 7 0 11 9 23 19 26 34 12 -1 95 -46 109 -45 14 -151 107 -152 133 -1 25 44
17 79 -15 30 -27 38 -26 79 9 60 52 88 33 72 -51 -15 -80 11 -88 107 -33 104
59 76 145 -47 145 -24 0 -60 16 -78 37 -40 44 -43 71 -5 57 37 -14 57 6 34 34
-10 12 -22 45 -27 72 -5 28 -11 39 -12 25z"/>
<path d="M3648 1120 c-50 -20 -79 -100 -36 -100 15 0 28 9 28 20 0 11 13 20
29 20 16 0 39 18 51 40 24 45 3 51 -72 20z"/>
<path d="M2140 1100 c0 -11 -21 -20 -48 -20 -26 0 -73 -13 -105 -30 -72 -38
-173 -38 -244 -1 -50 25 -57 25 -80 -11 -20 -32 -18 -41 8 -51 17 -7 26 -25
20 -41 -6 -15 -3 -23 7 -17 10 6 23 -2 29 -18 9 -25 19 -25 67 -2 31 14 132
32 226 40 230 17 344 100 209 151 -66 25 -89 25 -89 0z"/>
<path d="M900 1090 c-2 -11 -4 -27 -2 -35 1 -8 -7 -15 -18 -15 -11 0 -20 -22
-20 -50 0 -36 11 -50 39 -50 61 0 61 -25 0 -97 l-56 -68 -51 51 c-54 55 -65
49 -93 -50 -20 -71 16 -114 96 -115 47 -1 64 -39 20 -43 -14 -2 -35 -4 -47 -5
-29 -4 -123 -116 -128 -154 -11 -73 0 -83 79 -76 69 7 80 2 90 -38 7 -25 21
-45 31 -45 31 0 23 72 -10 100 -41 34 -23 86 72 214 43 57 78 110 78 116 0 7
23 45 50 86 54 80 67 149 24 133 -37 -15 -130 63 -140 116 -5 25 -11 36 -14
25z"/>
<path d="M760 969 c-27 -70 -26 -73 25 -65 32 4 47 22 51 61 9 72 -49 75 -76
4z"/>
<path d="M1146 921 c-2 -17 14 -54 35 -82 l38 -49 1 73 c0 75 -69 130 -74 58z"/>
<path d="M645 655 c-26 -32 -130 -277 -121 -286 22 -22 65 42 108 161 49 134
53 175 13 125z"/>
<path d="M947 270 c7 -18 0 -30 -18 -30 -17 0 -35 -13 -41 -29 -10 -25 -18
-25 -55 -3 -74 46 -152 57 -166 22 -14 -38 -61 -38 -135 1 -83 43 -123 -18
-64 -96 35 -47 75 -44 119 7 25 30 49 38 79 29 131 -40 215 -37 265 10 50 47
66 119 27 119 -12 0 -17 -13 -11 -30z"/>
</g>
</svg>
