<?xml version="1.0" standalone="no"?>
<!DOCTYPE svg PUBLIC "-//W3C//DTD SVG 20010904//EN"
 "http://www.w3.org/TR/2001/REC-SVG-20010904/DTD/svg10.dtd">
<svg version="1.0" xmlns="http://www.w3.org/2000/svg"
 width="300.000000pt" height="243.000000pt" viewBox="0 0 300.000000 243.000000"
 preserveAspectRatio="xMidYMid meet">
<metadata>
Created by potrace 1.10, written by Peter Selinger 2001-2011
</metadata>
<g transform="translate(0.000000,243.000000) scale(0.100000,-0.100000)"
fill="#000000" stroke="none">
<path d="M950 2329 c-35 -14 -60 -49 -60 -85 0 -38 -16 -47 -85 -45 -58 2 -64
-2 -88 -49 -10 -19 -29 -54 -43 -77 -20 -34 -23 -47 -16 -80 4 -21 7 -56 5
-78 -1 -22 -3 -48 -3 -57 -1 -10 -5 -20 -10 -23 -5 -3 -6 -13 -3 -21 7 -18
-15 -36 -37 -29 -8 2 -28 7 -45 9 -16 3 -37 15 -47 26 -19 24 -53 28 -44 5 3
-8 2 -14 -2 -14 -22 4 -30 -4 -30 -28 0 -37 7 -46 23 -33 8 7 18 9 24 6 5 -3
23 0 41 8 36 15 116 10 139 -8 11 -9 13 -7 6 13 -11 36 3 114 21 107 8 -3 14
1 14 9 0 8 -4 15 -9 15 -15 0 -19 35 -5 48 20 19 34 14 45 -15 8 -21 7 -30 -4
-38 -11 -8 -11 -13 5 -29 10 -11 18 -24 18 -30 0 -15 -45 -66 -58 -66 -17 0
-20 -25 -6 -51 13 -20 14 -21 9 -3 -4 16 1 26 19 38 14 9 32 16 39 16 8 0 21
8 30 18 18 20 35 98 19 88 -15 -9 -50 25 -58 57 l-7 29 49 -3 c40 -3 49 0 52
14 2 9 11 17 20 17 8 0 30 5 48 12 55 20 120 -33 156 -129 9 -24 12 -43 7 -43
-10 0 -30 -42 -23 -49 2 -2 9 3 17 11 44 44 44 104 1 133 l-25 16 23 19 23 18
6 -31 c4 -21 6 -10 6 34 0 49 -5 71 -18 88 l-19 23 -20 -23 -20 -24 2 30 c2
18 8 29 16 28 6 -2 12 2 12 7 0 6 -4 10 -9 10 -5 0 4 24 20 53 36 66 36 87 0
126 -32 34 -81 46 -121 30z m65 -18 c3 -5 -3 -12 -12 -14 -12 -3 -8 -5 9 -6
15 0 30 -6 33 -11 4 -6 11 -7 17 -4 7 4 8 2 4 -4 -4 -7 -3 -12 2 -12 5 0 12
-9 15 -19 4 -17 2 -18 -14 -8 -14 9 -21 9 -31 -1 -9 -9 -9 -12 0 -12 7 0 12
-7 12 -15 0 -8 -8 -15 -17 -15 -28 0 -68 25 -65 40 2 8 -3 10 -13 7 -8 -4 -15
-3 -15 2 0 13 26 32 33 24 4 -3 7 3 7 15 0 31 -15 27 -39 -10 l-20 -33 25 -26
c23 -24 81 -46 109 -41 6 1 2 -4 -9 -12 -26 -21 -45 -61 -35 -77 4 -7 6 -16 3
-20 -2 -4 3 -9 11 -13 8 -3 17 -1 20 4 13 21 22 8 21 -30 0 -22 -4 -40 -8 -40
-5 0 -8 7 -8 15 0 8 -12 18 -27 21 -16 4 -34 11 -41 17 -9 7 -21 6 -39 -2 -23
-11 -29 -10 -41 6 -13 17 -14 16 -7 -4 5 -19 2 -23 -14 -23 -11 0 -23 -4 -26
-10 -10 -17 -37 -11 -64 13 -14 12 -19 14 -12 5 15 -20 2 -25 -17 -6 -9 9 -12
9 -12 1 0 -7 5 -15 11 -19 18 -11 -7 -21 -40 -16 -34 5 -45 32 -26 59 11 14
16 16 26 6 7 -7 20 -13 29 -12 10 0 9 3 -5 9 -11 5 -14 9 -8 9 15 1 -16 41
-30 41 -5 0 -4 -7 3 -15 7 -9 8 -15 2 -15 -5 0 -12 6 -15 14 -8 20 28 50 53
43 11 -3 18 -1 14 4 -3 5 1 9 9 9 10 0 13 -7 10 -19 -3 -10 0 -22 7 -26 8 -5
6 -11 -7 -22 -13 -10 -14 -13 -3 -10 8 2 23 -3 33 -11 16 -15 17 -14 11 4 -4
10 -11 25 -17 31 -5 7 -7 24 -5 37 7 34 -7 55 -24 38 -16 -16 -51 -16 -45 1 2
6 14 11 25 9 26 -4 30 15 5 21 -13 4 -12 5 5 6 12 0 25 -6 28 -14 4 -8 10 -15
15 -15 5 0 9 7 9 15 0 8 7 15 15 15 13 0 14 -4 3 -22 -7 -13 -11 -29 -9 -37 1
-7 -2 -10 -7 -7 -6 4 -8 -3 -4 -16 4 -18 8 -14 22 23 12 30 25 45 41 49 19 5
24 13 26 45 1 24 9 45 19 52 10 7 14 13 8 13 -16 1 40 29 58 30 9 0 19 -4 23
-9z m80 -281 c3 -5 1 -10 -4 -10 -6 0 -11 5 -11 10 0 6 2 10 4 10 3 0 8 -4 11
-10z m-60 -40 c3 -5 2 -10 -4 -10 -5 0 -13 5 -16 10 -3 6 -2 10 4 10 5 0 13
-4 16 -10z m-248 -136 c5 -13 7 -13 14 -2 5 8 9 9 9 2 0 -6 -8 -18 -17 -25
-11 -10 -14 -10 -9 -1 4 6 3 12 -2 12 -6 0 -12 7 -16 15 -3 8 -1 15 5 15 5 0
12 -7 16 -16z m-283 -65 c-6 -11 -44 -12 -44 -1 0 4 11 8 25 8 14 1 22 -2 19
-7z"/>
<path d="M892 2150 c0 -14 2 -19 5 -12 2 6 2 18 0 25 -3 6 -5 1 -5 -13z"/>
<path d="M978 2133 c-28 -7 -21 -21 7 -15 14 2 22 8 19 13 -3 5 -6 8 -7 8 -1
-1 -10 -3 -19 -6z"/>
<path d="M864 2108 c-4 -7 -2 -14 6 -16 8 -3 25 -16 38 -29 22 -22 25 -23 48
-9 21 14 24 14 32 0 8 -15 10 -15 15 -1 6 17 -25 33 -43 22 -5 -3 -10 1 -10
10 0 27 -72 46 -86 23z m46 -8 c0 -5 -5 -10 -11 -10 -5 0 -7 5 -4 10 3 6 8 10
11 10 2 0 4 -4 4 -10z"/>
<path d="M858 2052 c-3 -10 0 -19 6 -19 7 0 12 9 12 19 0 10 -3 18 -7 18 -4 0
-9 -8 -11 -18z"/>
<path d="M2420 2280 c-52 -28 -60 -38 -60 -74 0 -35 33 -93 77 -135 14 -13 22
-29 19 -38 -4 -8 -9 -27 -12 -41 -9 -35 -34 -64 -51 -58 -7 3 -15 1 -18 -5
-11 -18 25 -21 51 -5 29 20 48 60 45 95 -3 21 0 23 26 17 20 -5 24 -4 13 3
-12 8 -9 12 13 20 15 6 34 8 42 5 8 -4 15 -1 15 5 0 6 7 11 15 11 23 0 38 36
22 52 -8 7 -12 21 -9 31 6 23 -27 91 -52 107 -18 11 -41 19 -81 25 -11 2 -36
-5 -55 -15z m86 -30 c1 -8 3 -19 4 -25 1 -5 2 -13 1 -17 0 -4 5 -5 13 -2 8 3
17 1 21 -5 3 -6 -1 -14 -10 -17 -21 -8 -1 -34 27 -34 10 0 16 -4 13 -10 -3 -5
1 -10 9 -10 18 0 22 -25 6 -35 -5 -3 -10 -1 -10 5 0 6 -5 8 -10 5 -6 -4 -8
-10 -6 -14 3 -3 -3 -7 -12 -8 -9 -1 -31 -4 -48 -7 -26 -4 -38 0 -63 24 -17 17
-31 32 -31 34 0 2 15 2 34 -1 21 -3 37 0 42 8 4 8 3 10 -5 5 -18 -11 -71 4
-71 20 0 8 5 14 12 14 6 0 8 3 5 6 -4 4 -13 1 -22 -6 -13 -11 -15 -8 -15 22 0
27 5 37 25 46 14 6 25 8 25 3 0 -4 7 -8 14 -8 8 0 15 3 14 6 -2 17 4 22 20 19
9 -2 18 -10 18 -18z m40 2 c18 -13 56 -82 45 -82 -7 0 -15 8 -18 18 -9 21 -29
43 -36 36 -2 -3 -7 4 -10 16 -5 21 1 25 19 12z m14 -82 c0 -5 -4 -10 -10 -10
-5 0 -10 5 -10 10 0 6 5 10 10 10 6 0 10 -4 10 -10z"/>
<path d="M2456 2194 c-3 -9 -6 -20 -6 -25 0 -14 37 -10 43 5 4 10 0 12 -14 9
-15 -4 -18 -2 -13 11 3 9 4 16 1 16 -3 0 -8 -7 -11 -16z"/>
<path d="M559 2267 c-49 -33 -61 -61 -56 -135 6 -84 30 -112 81 -94 18 7 40
10 47 7 9 -3 19 5 26 25 6 16 10 30 8 30 -2 0 -22 -10 -45 -22 -31 -17 -43
-19 -49 -10 -4 7 -15 10 -25 6 -9 -3 -16 -3 -15 2 1 5 0 11 -1 14 -7 20 -7 41
1 46 6 3 2 12 -8 20 -17 13 -17 13 2 14 11 0 31 -7 43 -16 15 -10 27 -13 35
-6 16 12 97 24 97 14 0 -4 -5 -13 -12 -20 -8 -8 -8 -12 -1 -12 10 0 33 50 33
71 0 11 -39 51 -70 72 -33 23 -50 21 -91 -6z m105 -42 l24 -24 -21 -18 c-15
-14 -21 -15 -24 -5 -4 10 -8 10 -19 1 -12 -10 -18 -8 -30 7 -10 12 -17 15 -20
8 -5 -13 -44 -7 -44 6 0 5 14 20 32 35 36 31 64 28 102 -10z"/>
<path d="M1987 2223 c-10 -10 -8 -43 2 -43 5 0 12 6 14 13 3 6 6 2 6 -10 1
-15 6 -20 19 -17 9 3 25 -1 35 -8 16 -12 15 -13 -10 -12 -16 0 -41 6 -56 12
-31 13 -75 16 -63 5 3 -4 14 -8 22 -9 32 -5 44 -14 44 -33 0 -11 5 -23 12 -27
7 -4 8 -3 4 5 -4 7 2 15 16 20 28 11 38 6 38 -20 0 -17 -4 -19 -22 -13 -20 6
-21 5 -9 -10 12 -14 11 -16 -8 -16 -11 0 -21 -4 -21 -10 0 -12 10 -13 29 -1 9
6 23 6 35 -1 20 -11 20 -11 -4 -21 -39 -15 -70 -17 -70 -4 0 7 -4 6 -10 -3 -7
-12 -12 -12 -28 4 -11 9 -23 28 -26 42 -4 13 -11 24 -16 24 -6 0 -10 11 -10
25 0 22 2 24 14 13 8 -7 11 -17 8 -23 -2 -5 1 -5 8 2 11 10 10 17 -4 38 -16
25 -16 26 10 50 20 19 23 25 10 25 -9 0 -16 -5 -16 -11 0 -5 -4 -8 -9 -4 -16
9 -41 -38 -41 -78 0 -47 25 -104 53 -118 19 -11 18 -13 -16 -43 -32 -28 -34
-33 -19 -42 20 -13 42 -88 42 -144 0 -44 -20 -56 -21 -12 0 15 -3 22 -5 16 -2
-6 -17 -9 -32 -7 -16 2 -37 -4 -52 -17 -15 -12 -19 -20 -11 -20 11 0 10 -5 -4
-20 -25 -28 -11 -25 20 4 16 15 33 22 42 19 12 -5 14 -3 8 8 -6 8 3 6 21 -6
50 -33 80 -59 87 -77 3 -10 15 -18 26 -18 22 0 56 -53 46 -70 -3 -5 26 -43 66
-84 70 -73 115 -98 126 -70 3 8 9 12 13 9 5 -3 11 -1 15 5 4 6 10 8 15 5 4 -3
13 2 20 10 7 8 23 15 36 15 13 0 24 5 24 10 0 6 6 10 13 10 8 0 22 10 33 22
17 19 13 19 -30 -6 -39 -23 -53 -26 -71 -18 -24 11 -45 0 -45 -26 0 -7 -6 -12
-12 -9 -7 2 -12 9 -11 15 3 12 -23 6 -43 -10 -8 -6 -10 -1 -7 16 4 21 2 24
-15 19 -11 -2 -23 1 -27 7 -5 9 -1 10 16 5 l24 -7 -24 26 c-27 29 -44 34 -35
11 4 -9 0 -15 -10 -15 -10 0 -13 5 -9 17 4 11 3 14 -5 9 -15 -9 -15 9 -2 34 8
15 7 18 -3 15 -7 -3 -21 2 -32 10 -19 16 -19 16 10 10 47 -10 86 -7 111 10 31
20 44 19 44 -3 0 -18 -47 -52 -73 -52 -9 0 -18 6 -20 13 -3 6 -6 7 -6 2 -1 -6
19 -30 43 -54 34 -33 49 -42 63 -36 16 7 21 9 38 14 2 0 -3 20 -11 44 -8 23
-18 85 -21 137 -3 52 -9 102 -14 112 -6 11 -4 18 6 22 11 4 13 17 10 51 -3 25
-2 45 1 45 9 0 64 -30 64 -36 0 -3 -9 -2 -20 1 -14 4 -20 2 -20 -8 0 -18 21
-27 47 -21 11 3 25 -2 32 -10 8 -9 25 -16 40 -15 14 0 20 3 14 6 -18 7 -16 23
2 23 8 0 15 -6 15 -14 0 -26 20 -28 40 -4 26 31 25 18 -1 -26 -18 -31 -19 -36
-5 -36 9 0 17 -8 17 -17 1 -10 2 -22 4 -28 1 -5 3 -16 3 -22 1 -7 8 -13 15
-13 16 1 76 50 60 50 -6 0 -18 -7 -27 -15 -17 -17 -36 -20 -36 -5 0 6 5 10 11
10 8 0 8 4 2 13 -6 6 -9 20 -8 30 2 9 -1 15 -6 11 -5 -3 -9 2 -9 10 0 17 35
57 43 49 3 -2 20 0 39 5 28 8 38 6 57 -9 12 -10 20 -23 17 -28 -3 -5 2 -8 11
-7 19 1 44 -42 47 -79 0 -12 7 -22 14 -22 14 0 16 9 3 23 -14 15 -23 54 -12
54 5 0 13 -9 16 -21 4 -11 9 -18 13 -15 7 8 61 -87 55 -97 -2 -4 -14 4 -25 18
-10 14 -25 25 -31 25 -8 0 -8 -3 0 -11 6 -6 9 -18 6 -27 -4 -9 -2 -13 4 -9 18
11 44 -75 37 -120 -4 -28 -2 -43 6 -48 9 -6 11 0 8 24 -3 18 -1 34 3 37 9 5
24 -53 20 -78 -1 -10 1 -18 6 -18 4 0 9 -11 9 -25 1 -15 -2 -22 -9 -18 -5 3
-7 1 -4 -5 4 -5 3 -21 -2 -34 -9 -22 -10 -22 -11 7 l-2 30 -10 -32 c-6 -18
-15 -33 -20 -33 -12 0 1 51 18 71 16 18 18 33 4 24 -5 -3 -10 4 -11 17 -1 17
-3 14 -11 -12 -5 -19 -12 -47 -15 -63 -3 -15 -15 -32 -26 -38 -17 -10 -19 -9
-14 5 4 9 2 16 -3 16 -5 0 -11 -8 -15 -19 -3 -10 -24 -31 -47 -46 -40 -27 -72
-30 -123 -11 -16 7 -17 6 -5 -3 12 -9 6 -10 -25 -5 -22 4 -51 11 -64 16 -19 7
-21 11 -11 23 7 8 20 15 29 16 9 0 11 3 4 5 -8 4 -9 13 -3 29 7 18 5 28 -5 38
-7 8 -12 23 -10 33 2 10 4 25 4 32 1 7 5 10 11 7 6 -3 7 1 4 9 -3 9 -2 16 3
16 5 0 18 7 29 15 19 15 19 15 -1 8 -18 -6 -18 -4 4 20 31 34 43 34 35 2 -3
-14 -2 -25 4 -25 5 0 13 26 17 58 3 31 9 67 12 80 3 13 0 22 -6 22 -6 0 -11
-7 -11 -15 0 -8 -7 -15 -15 -15 -8 0 -15 7 -15 15 0 8 -4 15 -10 15 -16 0 -12
-18 8 -32 26 -19 33 -45 16 -58 -10 -9 -14 -9 -15 -1 -1 6 -2 16 -3 22 0 6 -9
16 -18 23 -10 7 -18 23 -18 35 0 11 -4 21 -8 21 -5 0 -9 14 -10 31 -1 33 -21
66 -23 39 -3 -29 8 -108 16 -121 4 -5 15 -9 25 -9 13 0 20 -8 22 -27 2 -23 -4
-33 -32 -51 -19 -13 -27 -21 -17 -18 24 8 21 1 -15 -34 -18 -17 -25 -28 -16
-24 15 5 15 3 5 -19 -10 -21 -15 -23 -35 -16 -30 11 -32 11 -32 -2 0 -5 5 -7
10 -4 6 3 10 1 10 -5 0 -6 5 -8 12 -4 6 4 8 3 4 -4 -3 -6 -15 -9 -25 -7 -10 2
-28 -5 -40 -16 -11 -11 -31 -24 -43 -29 -21 -8 -21 -9 -3 -9 11 0 27 3 35 9 9
6 17 5 21 -2 4 -6 14 -8 24 -5 9 4 14 11 11 16 -7 11 55 24 65 14 4 -5 3 -19
-2 -31 -9 -23 -12 -24 -94 -19 -57 3 -93 0 -109 -8 -22 -12 -26 -10 -47 18
-15 20 -18 32 -11 35 18 6 4 22 -19 22 -11 0 -18 4 -14 9 3 5 0 13 -6 17 -8 4
-9 3 -5 -4 4 -7 3 -12 -3 -12 -15 0 -121 111 -115 121 3 5 -2 6 -10 3 -9 -3
-16 -2 -16 4 0 15 -63 21 -76 7 -8 -7 -11 -34 -10 -66 1 -30 -1 -59 -6 -65 -9
-12 -16 -173 -7 -177 3 -1 3 -47 -1 -102 -3 -55 -5 -129 -4 -166 1 -65 20
-122 33 -101 9 14 7 266 -2 312 -4 20 -4 27 1 17 5 -11 9 14 10 67 2 54 -1 86
-8 86 -5 0 -10 5 -10 12 0 6 10 3 21 -8 l22 -19 -13 25 c-16 29 -21 100 -8
100 5 0 7 4 4 9 -10 16 13 61 30 61 9 0 18 -9 21 -20 3 -11 9 -17 14 -14 15 9
10 -3 -7 -21 -16 -15 -27 -95 -26 -180 1 -16 1 -114 1 -218 0 -162 2 -187 16
-187 8 0 15 -3 15 -6 0 -11 -29 -34 -42 -34 -8 0 -19 -5 -25 -11 -13 -13 -47
-4 -39 9 3 5 -1 9 -9 9 -13 0 -13 -3 1 -18 14 -16 14 -18 -8 -30 -13 -7 -27
-13 -33 -14 -12 0 -20 -35 -7 -35 5 0 17 9 26 19 10 11 24 17 32 14 10 -4 12
0 8 11 -4 12 0 16 16 16 12 0 35 10 52 21 22 16 35 19 51 12 20 -9 20 -10 -10
-23 -17 -8 -39 -27 -50 -43 -47 -75 -65 -105 -83 -140 -11 -20 -28 -37 -38
-38 -10 0 -12 -3 -4 -6 18 -7 15 -31 -7 -42 -10 -6 -21 -8 -23 -5 -3 2 -11 -2
-18 -11 -7 -9 -8 -15 -2 -15 6 0 13 6 15 13 3 7 6 5 6 -5 1 -24 -58 -119 -70
-112 -5 3 -9 -2 -9 -11 0 -9 -5 -13 -10 -10 -6 4 -8 11 -5 16 4 5 -2 9 -12 9
-15 -1 -14 -4 8 -24 20 -17 24 -27 17 -39 -5 -10 -15 -17 -22 -17 -7 0 -21 -7
-32 -16 -18 -15 -18 -15 3 -5 30 15 33 14 33 -9 0 -11 -7 -20 -16 -20 -8 0
-13 -4 -10 -9 8 -13 -58 -20 -66 -7 -5 7 -8 7 -8 -3 0 -7 -6 -11 -14 -8 -10 4
-13 1 -9 -9 3 -8 12 -13 20 -10 38 15 64 17 76 7 10 -8 19 -5 34 12 10 13 18
28 16 34 -2 6 3 28 11 48 9 21 16 44 16 52 0 9 19 45 43 82 112 171 167 260
167 270 0 10 85 86 98 87 4 0 27 4 51 8 l43 8 -8 47 c-12 68 -9 152 6 186 16
36 15 32 24 70 4 17 11 39 16 51 7 17 2 24 -35 44 -65 36 -129 144 -108 183 3
4 11 3 19 -4 10 -8 11 -14 4 -19 -13 -8 0 -44 17 -47 7 -2 12 1 10 6 -1 5 1 9
6 10 20 3 28 0 23 -8 -4 -5 -1 -11 5 -13 5 -2 12 -16 13 -32 2 -18 18 -41 41
-62 38 -33 38 -33 114 -27 42 3 90 5 106 4 17 -1 50 -1 74 -1 41 0 43 -1 38
-25 l-4 -26 19 21 c22 23 47 28 28 5 -8 -9 -9 -15 -2 -15 6 0 14 5 17 11 4 6
13 8 21 5 8 -3 17 1 20 8 7 19 43 27 65 15 14 -7 19 -5 24 11 3 11 4 24 0 29
-9 16 13 23 35 11 16 -9 22 -8 26 5 4 9 13 14 20 11 9 -3 22 13 39 48 22 47
24 59 15 105 -5 28 -14 60 -20 70 -7 14 -6 21 1 23 8 3 7 14 -5 35 -9 18 -16
43 -16 56 0 12 -5 28 -10 33 -6 6 -13 21 -15 34 -3 13 -35 55 -72 92 -67 67
-68 68 -121 68 -47 0 -53 -2 -42 -15 14 -17 0 -21 -17 -4 -6 6 -17 8 -24 3
-18 -10 -107 -6 -119 6 -3 3 -23 18 -46 33 -22 15 -53 41 -69 57 -30 32 -55
39 -55 17 0 -8 -11 -19 -24 -25 -19 -8 -26 -7 -40 10 -10 11 -25 18 -35 15
-21 -5 -41 15 -41 42 0 11 -4 23 -10 26 -15 9 -12 25 5 25 8 0 15 -8 15 -17 0
-14 2 -15 13 -4 10 11 9 14 -1 18 -6 3 -9 10 -5 16 4 6 0 8 -9 4 -11 -4 -15 0
-13 11 3 21 -15 62 -27 62 -4 0 -8 7 -8 16 0 11 -5 14 -16 10 -11 -4 -18 1
-21 14 -5 20 -23 26 -36 13z m47 -239 c15 -14 16 -14 16 1 0 12 5 15 18 10 9
-4 23 -8 30 -8 14 0 16 -13 2 -22 -5 -3 -10 -1 -10 6 0 7 -3 9 -6 6 -4 -4 -2
-13 4 -20 7 -8 8 -18 4 -22 -4 -5 -1 -5 6 -1 6 4 12 3 12 -1 0 -5 18 -14 40
-20 22 -5 40 -7 40 -3 0 8 45 30 61 30 6 0 9 -15 7 -32 -2 -22 -8 -32 -17 -30
-11 2 -12 0 -3 -11 9 -11 9 -28 0 -71 -9 -46 -9 -60 1 -66 25 -15 3 -65 -38
-88 -34 -19 -40 -20 -57 -7 -10 8 -31 15 -46 15 -16 0 -28 5 -28 10 0 6 -7 10
-15 10 -18 0 -75 52 -75 69 0 7 -5 9 -11 5 -8 -5 -10 12 -7 59 2 36 0 63 -4
61 -12 -7 -10 14 4 39 10 20 9 21 -5 9 -27 -23 -26 19 1 56 27 35 52 41 76 16z
m131 -20 c31 -20 24 -49 -8 -32 -12 7 -28 11 -34 10 -7 -2 -13 0 -13 3 0 6 23
34 28 35 1 0 14 -7 27 -16z m133 -24 c7 -11 9 -20 6 -20 -12 0 -53 37 -48 43
9 9 28 -2 42 -23z m67 -60 c3 -5 1 -10 -4 -10 -6 0 -11 5 -11 10 0 6 2 10 4
10 3 0 8 -4 11 -10z m470 -290 c3 -5 1 -10 -4 -10 -6 0 -11 5 -11 10 0 6 2 10
4 10 3 0 8 -4 11 -10z m-570 -45 c0 -24 -25 -27 -42 -5 -15 20 -6 32 20 28 14
-2 22 -10 22 -23z m-200 -175 c18 0 19 -22 3 -39 -11 -10 -10 -11 3 -6 9 3 26
-6 45 -27 17 -18 41 -40 54 -49 l24 -16 -32 -97 c-18 -53 -32 -114 -32 -134 0
-29 -3 -34 -11 -22 -8 12 -9 11 -6 -5 2 -11 8 -19 14 -18 13 3 27 -43 18 -57
-4 -6 -11 -10 -16 -10 -6 0 -7 5 -4 10 3 6 -1 10 -9 10 -8 0 -18 -9 -21 -20
-3 -11 -13 -20 -20 -20 -9 0 -12 6 -9 15 5 11 2 13 -10 9 -8 -3 -23 2 -33 11
-14 14 -17 41 -20 151 -2 92 1 134 8 134 8 0 9 15 4 48 -8 52 -8 49 -1 112 16
133 29 164 34 78 2 -43 7 -58 17 -58z m147 -40 c12 -11 18 -23 15 -27 -7 -6
-47 30 -47 42 0 10 11 5 32 -15z m118 -12 c0 -10 2 -10 8 0 5 7 16 10 26 6 10
-4 27 -7 39 -8 11 -1 22 -7 25 -15 3 -10 -1 -12 -17 -8 -11 3 -21 1 -21 -4 0
-14 -80 -11 -80 4 0 7 -5 5 -11 -5 -11 -19 -39 -13 -39 8 0 13 12 18 33 15 4
0 7 4 7 9 0 6 7 10 15 10 8 0 15 -6 15 -12z m390 -28 c0 -5 -5 -10 -11 -10 -5
0 -7 5 -4 10 3 6 8 10 11 10 2 0 4 -4 4 -10z m-780 -30 c0 -5 -2 -10 -4 -10
-3 0 -8 5 -11 10 -3 6 -1 10 4 10 6 0 11 -4 11 -10z m-10 -275 c0 -14 -2 -25
-4 -25 -2 0 -6 11 -8 25 -3 14 -1 25 3 25 5 0 9 -11 9 -25z"/>
<path d="M2095 1861 c-3 -6 10 -7 32 -4 50 8 55 13 10 13 -20 0 -38 -4 -42 -9z"/>
<path d="M1971 1804 c0 -11 3 -14 6 -6 3 7 2 16 -1 19 -3 4 -6 -2 -5 -13z"/>
<path d="M2071 1293 c7 -12 15 -20 18 -17 3 2 -3 12 -13 22 -17 16 -18 16 -5
-5z"/>
<path d="M2070 1181 c0 -5 6 -14 14 -20 12 -10 13 -8 9 8 -5 21 -23 30 -23 12z"/>
<path d="M2108 1181 c8 -5 11 -17 7 -33 -4 -14 -3 -28 2 -31 4 -3 9 13 11 34
2 32 -1 39 -15 39 -14 0 -15 -2 -5 -9z"/>
<path d="M2060 1014 c0 -11 4 -24 9 -29 5 -6 12 -23 14 -40 2 -16 3 -8 2 18
-2 47 -25 94 -25 51z"/>
<path d="M620 2099 c0 -5 5 -7 10 -4 6 3 10 8 10 11 0 2 -4 4 -10 4 -5 0 -10
-5 -10 -11z"/>
<path d="M2636 2095 c4 -8 11 -15 18 -15 6 -1 -3 -7 -20 -14 -17 -8 -38 -23
-46 -35 -8 -11 -18 -18 -21 -14 -4 3 -7 1 -7 -5 0 -7 7 -12 15 -12 18 0 19 -9
4 -30 -9 -13 -10 -13 -6 2 9 25 -60 14 -83 -15 -18 -21 -18 -23 2 -44 l21 -23
33 25 c18 14 37 25 42 25 13 0 20 43 11 68 -6 16 -2 24 16 36 58 38 145 -6
147 -74 1 -19 3 -29 5 -22 8 23 28 12 51 -29 30 -51 23 -60 -13 -17 -15 18
-32 34 -36 34 -5 1 -13 2 -19 3 -5 0 -10 10 -10 21 0 11 -7 20 -15 20 -8 0
-15 -7 -15 -16 0 -8 -4 -13 -9 -10 -5 3 -11 0 -14 -8 -3 -8 -14 -12 -25 -9
-14 3 -19 13 -18 36 1 39 28 47 75 22 36 -18 42 -4 9 17 -27 17 -92 32 -84 19
3 -5 -1 -11 -9 -15 -9 -3 -15 -18 -15 -36 0 -17 -5 -40 -11 -51 -9 -18 -8 -19
10 -7 18 11 23 10 36 -10 15 -20 43 -33 31 -13 -3 4 3 16 15 26 19 18 20 18
60 -26 75 -82 110 -127 114 -149 5 -27 3 -26 38 -34 22 -5 27 -3 27 13 0 32
-68 147 -168 283 -42 58 -152 125 -136 83z m-76 -137 c0 -13 -4 -18 -8 -13 -9
12 -32 12 -52 0 -13 -7 -13 -6 -2 7 8 9 20 14 28 11 8 -3 14 0 14 6 0 6 5 11
10 11 6 0 10 -10 10 -22z"/>
<path d="M360 2033 c-19 -8 -43 -25 -52 -37 -9 -11 -44 -57 -77 -100 l-60 -79
19 -28 c11 -15 20 -31 20 -37 0 -9 67 -82 75 -82 3 0 5 11 5 24 0 13 6 27 13
29 7 4 6 6 -4 6 -18 1 -27 16 -39 68 -7 29 -4 36 22 58 43 36 87 52 129 47 44
-5 63 15 61 66 -1 26 -9 43 -27 60 -30 25 -37 26 -85 5z m74 -19 c17 -17 21
-28 7 -20 -5 3 -14 0 -20 -8 -7 -8 -20 -12 -30 -9 -10 3 -22 0 -25 -6 -5 -7
-1 -8 10 -4 12 4 15 3 10 -5 -4 -7 -16 -12 -27 -12 -20 0 -81 -56 -110 -100
-10 -17 -13 -34 -8 -50 14 -48 10 -55 -16 -30 -31 29 -31 40 -2 76 12 16 22
31 21 34 -2 14 85 110 116 128 44 25 55 26 74 6z m7 -68 c-11 -28 -31 -35 -31
-11 0 8 5 15 11 15 5 0 7 5 3 12 -4 7 -3 8 4 4 7 -4 12 -2 12 5 0 7 2 10 5 7
3 -3 1 -17 -4 -32z m-171 -221 c7 -9 8 -15 2 -15 -5 0 -12 7 -16 15 -3 8 -4
15 -2 15 2 0 9 -7 16 -15z"/>
<path d="M2138 2014 c17 -11 27 -13 34 -6 7 7 19 7 34 2 14 -6 26 -6 29 0 8
13 -5 17 -65 19 -54 1 -54 1 -32 -15z"/>
<path d="M2185 1990 c3 -5 10 -10 16 -10 5 0 9 5 9 10 0 6 -7 10 -16 10 -8 0
-12 -4 -9 -10z"/>
<path d="M892 1983 c-33 -6 -56 -48 -62 -115 -6 -56 -5 -58 18 -58 13 0 36 9
52 20 22 16 33 18 60 10 28 -8 36 -6 52 12 10 11 18 27 18 35 0 7 5 13 11 13
13 0 -13 37 -39 56 -17 12 -22 12 -31 0 -9 -11 -9 -16 0 -22 7 -4 9 -3 5 4
-14 23 12 20 34 -3 29 -31 20 -41 -25 -28 -25 8 -33 8 -28 0 4 -7 0 -8 -12 -3
-13 5 -28 -5 -58 -36 -38 -40 -40 -41 -35 -15 3 17 1 24 -6 21 -6 -3 4 8 22
25 19 18 44 31 60 32 24 0 24 1 7 8 -11 5 -27 5 -36 0 -9 -5 -20 -5 -24 -1 -5
4 -5 2 -2 -4 4 -7 -1 -18 -10 -25 -14 -12 -15 -11 -8 11 10 34 16 39 61 55 37
13 25 17 -24 8z m104 -94 c3 -6 -1 -18 -9 -27 -15 -14 -15 -13 -11 9 4 17 3
20 -4 10 -5 -8 -24 -15 -41 -16 -25 -2 -29 0 -21 11 7 7 24 15 38 17 15 2 30
5 34 6 4 0 10 -4 14 -10z"/>
<path d="M540 1960 c-6 -37 13 -74 24 -45 3 9 2 13 -3 10 -5 -3 -12 7 -14 22
-2 16 -5 21 -7 13z"/>
<path d="M1081 1944 c0 -11 3 -14 6 -6 3 7 2 16 -1 19 -3 4 -6 -2 -5 -13z"/>
<path d="M780 1925 c0 -8 5 -15 10 -15 6 0 10 7 10 15 0 8 -4 15 -10 15 -5 0
-10 -7 -10 -15z"/>
<path d="M1828 1924 c-2 -1 -16 -5 -32 -8 -51 -9 -62 -28 -59 -101 2 -36 6
-74 11 -83 9 -18 8 -41 -5 -142 -5 -36 -6 -82 -2 -103 7 -44 1 -87 -12 -87
-16 0 -28 45 -31 117 -2 37 -7 71 -13 75 -6 5 -5 8 3 8 18 0 15 17 -4 24 -22
9 -54 -21 -54 -51 0 -32 15 -29 17 3 0 14 6 31 11 36 7 7 9 -4 7 -33 -2 -24
-4 -52 -4 -62 -1 -10 -6 -15 -11 -12 -6 4 -8 11 -5 16 4 5 1 9 -4 9 -6 0 -11
-11 -11 -25 0 -19 5 -25 17 -23 17 3 27 -23 39 -97 2 -16 9 -31 14 -33 15 -5
12 -22 -3 -22 -8 0 -18 24 -25 60 -7 33 -17 60 -23 60 -6 0 -8 -4 -5 -8 3 -4
7 -27 10 -49 2 -23 11 -54 19 -70 16 -30 15 -75 -4 -166 -11 -53 -11 -61 10
-105 25 -53 33 -112 31 -220 -1 -52 3 -80 14 -98 15 -22 39 -34 34 -16 -1 4 3
16 9 27 6 11 14 37 18 57 4 21 18 49 32 63 29 28 20 35 -10 8 -15 -13 -21 -15
-24 -5 -3 6 -13 12 -24 12 -10 0 -19 5 -19 10 0 20 -2 25 -12 38 -6 7 -9 14
-7 17 8 8 109 -26 109 -37 0 -7 5 -6 14 1 11 9 14 36 13 112 -1 54 -6 99 -10
99 -5 0 -6 12 -3 26 4 15 9 59 12 98 2 39 7 87 10 106 3 19 5 74 5 123 -1 57
2 87 9 87 6 0 9 3 6 8 -2 4 -1 23 3 42 6 29 11 35 34 36 15 1 30 -2 32 -7 3
-4 14 -5 25 -2 19 5 19 7 -7 43 -27 37 -28 37 -52 21 -14 -9 -26 -15 -28 -13
-2 1 -20 2 -40 2 -29 0 -34 -3 -25 -12 18 -18 15 -38 -5 -31 -10 3 -3 -6 15
-20 21 -16 29 -28 22 -32 -6 -4 -9 -13 -6 -20 2 -7 -4 -23 -15 -36 -23 -27
-24 -30 -4 -23 18 7 20 -17 3 -34 -8 -8 -8 -15 -3 -21 6 -6 8 -33 6 -62 -2
-35 -6 -47 -12 -38 -6 10 -9 4 -9 -18 0 -17 5 -35 10 -38 12 -7 3 -103 -11
-121 -5 -6 -8 -22 -8 -35 1 -13 -2 -32 -6 -42 -6 -13 -4 -16 9 -11 12 5 16 0
16 -17 0 -13 -4 -30 -9 -38 -5 -8 -3 -24 5 -40 24 -44 18 -60 -18 -56 -36 5
-53 19 -63 54 -6 20 -5 23 11 17 18 -6 18 -5 2 8 -11 8 -18 27 -18 49 0 52 20
138 31 131 5 -3 9 0 9 5 0 6 -5 11 -10 11 -6 0 -14 10 -19 22 -16 43 -32 -193
-17 -242 13 -38 -6 -15 -22 28 -27 74 -33 112 -20 135 15 28 19 49 22 113 2
28 6 55 9 61 4 6 0 13 -8 17 -22 8 -18 36 5 36 11 0 20 -7 20 -15 0 -8 5 -15
10 -15 6 0 10 9 10 20 0 11 6 36 14 55 13 29 13 34 -1 39 -12 5 -13 9 -4 20 9
11 9 15 -1 19 -10 4 -10 8 2 16 10 7 11 11 3 11 -25 0 -12 29 15 33 l27 4 -27
2 c-26 1 -37 19 -21 35 8 7 13 37 14 80 0 16 8 36 17 44 15 12 15 13 0 9 -22
-7 -30 3 -16 20 8 10 8 12 -4 8 -11 -5 -15 1 -14 22 1 26 5 28 44 31 26 2 42
-1 38 -6 -3 -5 8 -12 24 -14 23 -3 30 -1 30 12 0 17 -18 21 -92 20 -36 0 -48
3 -48 14 0 41 109 64 129 29 9 -17 10 -17 17 0 4 10 2 23 -3 28 -9 9 -69 19
-75 13z m127 -244 c3 -5 -1 -10 -9 -10 -9 0 -16 5 -16 10 0 6 4 10 9 10 6 0
13 -4 16 -10z m-75 -19 c0 -12 -20 -25 -27 -18 -7 7 6 27 18 27 5 0 9 -4 9 -9z
m-115 -870 c-6 -25 -7 -25 -21 -7 -15 21 -9 66 10 78 14 9 20 -34 11 -71z"/>
<path d="M2427 1901 c-11 -14 -10 -14 6 -2 11 9 17 10 17 2 0 -6 7 -11 15 -11
8 0 12 6 9 13 -7 18 -32 17 -47 -2z"/>
<path d="M570 1882 c0 -12 3 -12 18 -1 9 7 19 14 21 16 2 1 -6 1 -18 0 -11 -1
-21 -8 -21 -15z"/>
<path d="M1798 1873 c7 -3 16 -2 19 1 4 3 -2 6 -13 5 -11 0 -14 -3 -6 -6z"/>
<path d="M384 1845 c-2 -28 11 -34 20 -9 9 24 7 34 -6 34 -7 0 -14 -11 -14
-25z"/>
<path d="M578 1856 c-48 -15 -63 -31 -21 -23 18 4 35 2 39 -4 8 -13 34 8 34
27 0 16 -2 16 -52 0z"/>
<path d="M1044 1861 c8 -12 -13 -70 -36 -103 -13 -18 -25 -25 -41 -22 -21 4
-20 4 2 -6 19 -8 22 -13 12 -23 -9 -9 -16 -9 -31 1 -11 6 -26 12 -35 12 -9 0
-12 6 -9 18 4 10 -3 7 -18 -10 -28 -33 -34 -34 -48 -7 -9 17 -8 23 7 35 17 13
16 14 -12 12 -16 -2 -33 -7 -37 -12 -7 -11 4 -45 15 -45 4 0 15 -7 23 -16 17
-17 54 -20 54 -5 0 6 11 10 25 10 24 0 25 -2 25 -68 0 -39 -5 -73 -12 -80 -24
-24 -14 -172 12 -172 17 0 101 -94 96 -107 -3 -8 -6 -17 -6 -19 0 -2 -12 -4
-26 -4 -18 0 -25 4 -21 14 7 17 -21 59 -33 51 -5 -3 -9 -32 -9 -65 1 -45 4
-60 15 -60 8 0 14 -9 14 -20 0 -15 7 -20 29 -20 60 0 60 1 60 133 0 124 -11
188 -37 219 -12 14 -14 37 -10 108 3 50 1 93 -3 96 -5 3 1 20 13 37 12 17 23
36 24 42 1 5 5 27 9 48 5 26 4 37 -4 37 -7 0 -10 -4 -7 -9z m-50 -198 c-4 -16
-11 -35 -16 -43 -8 -12 -8 -12 -4 3 3 9 1 17 -4 17 -6 0 -10 11 -10 25 0 18 5
25 20 25 17 0 19 -4 14 -27z m-12 -92 c-2 -17 3 -45 13 -63 17 -34 21 -48 34
-110 12 -55 0 -61 -41 -24 -20 19 -39 32 -41 30 -10 -10 0 143 11 169 15 36
30 35 24 -2z m46 -369 c5 -30 -25 -40 -43 -16 -8 11 -15 26 -15 36 0 26 54 8
58 -20z"/>
<path d="M1916 1852 c-7 -12 4 -52 15 -52 5 0 6 12 3 28 -8 33 -10 36 -18 24z"/>
<path d="M2293 1829 c0 -8 -4 -22 -8 -31 -6 -14 -2 -18 18 -18 14 0 30 -7 35
-15 10 -19 49 -28 58 -14 3 6 16 8 29 5 17 -4 24 -1 28 13 4 16 -1 18 -59 13
-35 -2 -64 0 -64 4 -1 16 -37 57 -37 43z"/>
<path d="M2535 1831 c-2 -5 3 -17 11 -27 14 -18 15 -18 10 -1 -5 15 -2 17 17
11 12 -4 25 -12 29 -18 4 -6 9 -8 12 -5 3 2 1 10 -3 17 -9 15 -69 33 -76 23z"/>
<path d="M340 1778 c-24 -39 -24 -45 -5 -55 13 -8 25 -77 15 -86 -3 -3 -15 -8
-27 -11 -18 -6 -22 -4 -17 8 3 8 12 12 20 9 8 -3 14 1 14 10 0 8 -6 17 -12 20
-16 6 -50 -11 -44 -22 3 -4 12 -43 21 -86 16 -77 16 -128 -3 -235 -10 -55 -8
-254 3 -292 4 -16 13 -28 21 -28 8 0 14 -5 14 -11 0 -5 -4 -8 -10 -4 -16 10 9
-48 34 -78 12 -15 33 -29 47 -31 35 -4 82 -17 95 -27 10 -8 27 -10 79 -9 11 0
43 0 72 0 l51 -1 31 -66 c34 -72 38 -109 16 -139 -22 -28 -19 -46 8 -42 19 3
23 10 27 59 3 33 12 65 22 75 21 24 20 36 -4 53 -24 16 -36 7 -18 -14 7 -8 8
-15 2 -15 -5 0 -15 7 -23 16 -10 13 -10 17 2 25 13 8 6 13 -13 10 -5 0 -8 5
-8 13 0 8 -6 16 -12 19 -7 3 -3 4 10 4 13 -1 28 -9 33 -19 5 -10 14 -18 19
-18 6 0 5 9 -2 20 -11 18 -10 24 12 41 20 17 21 19 5 14 -39 -14 -61 -17 -47
-7 11 7 8 11 -9 15 -29 8 -35 2 -20 -17 9 -11 7 -15 -8 -19 -11 -3 -22 1 -25
8 -2 7 -38 21 -80 31 -61 14 -82 15 -114 6 -47 -14 -102 2 -102 30 0 14 4 16
18 9 18 -10 51 -23 67 -26 6 -1 19 1 30 6 17 6 15 8 -10 9 -43 2 -100 24 -98
38 2 7 -2 12 -7 12 -6 0 -10 -9 -10 -21 0 -15 -4 -19 -16 -15 -9 3 -18 6 -20
6 -10 0 -3 29 9 33 7 3 5 6 -5 6 -22 1 -24 27 -3 38 11 6 15 32 16 101 2 58 6
92 13 92 7 0 7 3 -1 8 -6 4 -11 25 -11 47 0 22 -2 66 -4 99 -3 56 -2 60 28 82
17 13 39 24 50 24 10 0 25 4 32 9 10 6 7 10 -13 15 -15 4 -30 5 -33 2 -3 -3
-15 8 -28 26 -25 33 -23 41 18 101 14 19 28 27 49 27 16 0 29 5 29 11 0 5 5 7
10 4 6 -3 18 2 28 11 16 17 16 17 -8 10 -46 -13 -90 -19 -90 -12 0 11 27 36
33 30 2 -3 7 2 10 11 4 8 1 15 -6 15 -19 -1 -42 -23 -45 -45 -2 -11 -8 -22
-13 -23 -5 -2 -21 -28 -35 -59 l-26 -54 31 -40 c18 -22 26 -39 19 -39 -12 1
-68 79 -68 95 0 4 8 14 17 21 10 7 15 16 11 19 -4 4 -15 0 -24 -9 -9 -9 -19
-14 -22 -11 -9 8 31 35 46 30 7 -3 12 5 12 21 0 17 7 28 20 31 18 5 29 33 13
33 -14 -1 -43 -27 -43 -39 0 -6 -5 -11 -10 -11 -7 0 -7 7 1 21 8 15 8 24 0 32
-6 6 -11 21 -11 34 0 22 11 28 52 24 9 -1 19 3 23 9 3 5 -2 11 -12 12 -33 2
-38 3 -50 11 -8 5 -20 -4 -33 -25z m15 -258 c-3 -4 2 -10 10 -14 21 -8 19 -36
-2 -36 -13 0 -18 9 -20 35 -1 20 2 33 8 29 5 -3 7 -9 4 -14z m1 -313 c-1 -115
-4 -161 -13 -164 -9 -3 -10 4 -3 26 6 21 5 30 -3 28 -13 -2 -29 93 -18 108 5
5 7 19 5 30 -1 11 1 22 7 26 6 3 6 15 1 28 -11 31 -3 78 12 78 10 0 13 -37 12
-160z m217 -328 c-8 -8 -16 -8 -30 0 -16 9 -14 10 12 11 21 0 26 -3 18 -11z"/>
<path d="M2580 1786 c0 -1 11 -16 26 -32 l25 -29 -12 27 c-9 21 -39 47 -39 34z"/>
<path d="M543 1758 c-30 -14 -29 -26 2 -34 14 -3 25 -10 25 -16 0 -5 4 -7 9
-4 5 3 7 14 4 24 -4 16 1 18 31 14 28 -3 41 -12 57 -38 11 -19 24 -34 28 -34
4 0 8 -25 9 -56 2 -45 0 -55 -12 -51 -10 4 -17 -8 -26 -39 -7 -24 -16 -44 -21
-44 -5 0 -16 -16 -24 -36 -10 -24 -20 -34 -29 -31 -8 3 -17 -1 -20 -9 -7 -19
-41 -14 -41 6 0 8 -4 21 -8 28 -5 6 -5 12 0 12 4 0 -3 7 -15 16 -22 15 -42 12
-42 -6 0 -5 6 -7 14 -4 11 4 17 -5 22 -31 3 -20 13 -42 20 -50 21 -20 -9 -49
-36 -35 -27 14 -34 12 -20 -5 7 -8 8 -15 3 -15 -5 0 -17 -18 -27 -40 -10 -22
-23 -40 -29 -40 -7 0 -6 -4 3 -10 10 -7 11 -10 2 -10 -10 0 -10 -4 0 -19 7
-11 16 -17 20 -15 15 10 8 -13 -12 -39 -11 -14 -16 -27 -10 -29 6 -2 13 -20
17 -41 4 -28 1 -42 -12 -57 -10 -11 -15 -23 -11 -27 3 -4 14 4 23 16 12 18 17
20 24 10 6 -10 9 -10 9 -2 0 6 -4 15 -10 18 -5 3 -10 15 -10 26 0 13 4 18 12
13 6 -4 8 -3 5 3 -4 6 0 16 8 23 8 7 15 20 14 29 0 13 -2 13 -6 1 -8 -20 -33
-44 -39 -37 -3 2 -2 17 2 32 5 20 9 23 15 13 6 -9 9 -4 9 16 0 27 1 28 13 12
12 -17 14 -17 20 -2 7 18 52 22 62 6 8 -14 -56 -130 -72 -130 -7 0 -10 -7 -6
-16 3 -9 2 -19 -4 -23 -5 -3 -6 -17 -2 -31 6 -22 7 -22 8 -4 1 21 31 30 31 9
0 -7 8 -19 17 -26 14 -12 15 -12 9 0 -5 8 -3 17 5 22 12 7 11 9 -1 9 -33 0
-39 21 -17 59 11 20 29 53 39 73 10 20 23 40 28 43 14 9 -28 42 -64 51 -18 4
-31 2 -36 -6 -9 -15 -46 -5 -53 14 -3 7 4 31 15 52 33 66 129 81 179 28 25
-26 59 -32 59 -10 0 27 25 23 37 -6 13 -31 34 -33 45 -5 9 20 33 23 25 3 -4
-11 -1 -13 11 -9 12 4 14 3 7 -5 -6 -7 -23 -13 -38 -14 -15 -1 -26 -7 -24 -13
5 -15 61 -6 71 12 6 12 10 13 16 3 11 -18 -26 -67 -56 -74 -13 -4 -24 -14 -25
-24 0 -19 -7 -78 -12 -104 -2 -10 -6 -21 -10 -24 -10 -10 -9 -58 2 -88 8 -18
15 -23 30 -19 27 7 26 12 -4 53 -14 18 -23 36 -20 38 8 8 45 -42 51 -70 4 -16
13 -28 20 -28 8 0 23 -9 35 -21 16 -16 18 -23 8 -35 -6 -8 -8 -14 -4 -14 4 0
0 -12 -10 -26 -12 -19 -15 -37 -10 -68 14 -96 16 -152 6 -187 -14 -45 -36 -66
-54 -51 -7 6 -24 9 -38 6 -24 -4 -24 -4 2 8 20 10 24 18 19 33 -4 11 -3 24 4
28 7 6 6 7 -4 4 -8 -2 -14 -12 -14 -21 1 -9 -3 -16 -10 -16 -10 0 -46 -34 -46
-44 0 -3 8 -5 18 -5 9 0 37 -2 62 -5 25 -3 48 -5 51 -5 3 -1 11 -12 17 -26 11
-23 13 -23 39 -10 15 8 48 15 73 16 112 1 178 26 165 61 -7 18 -58 32 -63 17
-2 -5 -14 -9 -27 -9 -12 0 -36 -7 -51 -15 -36 -19 -91 -19 -124 0 -29 16 -9
20 21 4 28 -14 174 20 153 36 -12 8 -12 16 -3 43 19 56 -5 298 -37 370 -58
128 -67 152 -55 152 4 0 16 -9 26 -20 10 -11 27 -20 37 -20 11 0 27 -4 36 -9
24 -12 92 -2 92 14 0 7 -16 23 -36 36 -31 19 -41 21 -68 11 -39 -14 -73 -6
-79 19 -4 13 -10 17 -23 12 -14 -5 -16 -3 -10 12 4 11 4 16 0 12 -9 -8 -54 31
-54 48 0 6 -13 19 -30 28 -18 11 -30 27 -31 40 l0 22 -11 -22 c-19 -39 -61
-42 -51 -3 6 23 -7 26 -26 8 -10 -11 -16 -9 -31 10 -10 12 -21 22 -24 22 -12
0 -6 -28 7 -33 6 -2 9 -8 5 -12 -4 -4 -16 2 -28 12 -11 11 -39 26 -61 32 -38
11 -40 14 -23 25 31 20 53 26 60 14 4 -5 0 -14 -7 -19 -11 -7 -9 -9 6 -10 11
-1 29 -1 40 0 11 1 30 -4 43 -11 19 -10 27 -9 44 1 17 11 26 10 54 -5 19 -10
33 -24 31 -31 -3 -14 16 -19 21 -4 2 5 -6 18 -18 28 -12 10 -28 24 -35 31 -8
6 -20 12 -28 12 -18 0 -30 27 -14 33 6 2 3 6 -7 10 -10 4 -15 3 -11 -3 3 -6 1
-10 -4 -10 -6 0 -11 4 -11 9 0 5 -9 11 -20 14 -17 4 -20 2 -14 -15 4 -14 2
-18 -5 -14 -6 4 -11 3 -11 -3 0 -15 18 -23 22 -9 4 10 10 10 31 1 43 -20 34
-36 -15 -28 -24 4 -47 8 -53 9 -16 2 -35 24 -35 40 0 8 15 27 34 43 22 19 33
36 31 51 -1 16 6 27 21 34 17 8 23 20 26 55 2 24 -1 51 -5 59 -20 36 -94 103
-112 102 -11 -1 -29 1 -40 5 -11 3 -30 1 -42 -5z m351 -622 c-6 -21 -5 -20 10
1 20 27 51 21 34 -6 -15 -24 -3 -78 32 -148 21 -40 32 -78 35 -123 3 -36 8
-87 12 -115 8 -59 6 -86 -8 -142 -9 -35 -17 -44 -44 -53 -19 -6 -41 -7 -55 -2
-20 8 -23 16 -25 79 -1 38 -8 86 -15 107 -10 31 -9 42 5 73 27 57 22 81 -24
123 -48 44 -74 99 -63 132 4 13 7 34 7 48 0 15 13 36 35 57 l35 33 18 -22 c11
-13 15 -29 11 -42z m202 -33 c-8 -8 -36 10 -36 25 0 13 3 12 20 -3 11 -10 18
-20 16 -22z m4 -573 c11 -7 6 -10 -20 -10 -26 0 -31 3 -20 10 8 5 17 10 20 10
3 0 12 -5 20 -10z m-60 -20 c0 -5 -8 -10 -17 -10 -15 0 -16 2 -3 10 19 12 20
12 20 0z"/>
<path d="M420 1729 c0 -5 5 -7 10 -4 6 3 10 8 10 11 0 2 -4 4 -10 4 -5 0 -10
-5 -10 -11z"/>
<path d="M2672 1724 c-7 -8 -8 -14 -3 -14 10 0 25 19 20 25 -2 1 -10 -3 -17
-11z"/>
<path d="M2693 1703 c-7 -2 -13 -17 -12 -31 l1 -27 7 25 c4 14 13 24 20 22 7
-1 10 2 6 8 -3 5 -7 10 -8 9 -1 0 -8 -3 -14 -6z"/>
<path d="M585 1678 c11 -6 28 -18 38 -26 15 -14 17 -13 17 1 0 10 -3 16 -7 16
-20 -3 -26 2 -13 11 11 7 6 10 -20 10 -31 -1 -33 -2 -15 -12z"/>
<path d="M2730 1681 c0 -5 5 -13 10 -16 6 -3 10 -2 10 4 0 5 -4 13 -10 16 -5
3 -10 2 -10 -4z"/>
<path d="M1718 1656 c-15 -12 -25 -26 -21 -30 12 -12 22 -6 37 24 8 17 14 30
13 30 -1 0 -14 -11 -29 -24z"/>
<path d="M570 1650 c-12 -8 -10 -10 8 -10 13 0 20 4 17 10 -7 12 -6 12 -25 0z"/>
<path d="M2617 1649 c-18 -10 -15 -29 5 -29 6 0 8 3 5 7 -4 3 -2 12 4 20 13
15 10 16 -14 2z"/>
<path d="M470 1610 c0 -5 7 -10 15 -10 8 0 15 5 15 10 0 6 -7 10 -15 10 -8 0
-15 -4 -15 -10z"/>
<path d="M1940 1611 c0 -6 5 -13 10 -16 6 -3 10 1 10 9 0 9 -4 16 -10 16 -5 0
-10 -4 -10 -9z"/>
<path d="M2483 1593 c0 -25 0 -26 13 -8 8 10 14 22 14 27 0 4 -6 8 -14 8 -8 0
-13 -11 -13 -27z"/>
<path d="M2695 1590 c-4 -6 -1 -9 7 -8 13 3 14 -3 9 -39 -2 -14 -5 -12 -11 7
-8 22 -9 21 -7 -10 2 -43 20 -42 29 1 9 47 -9 79 -27 49z"/>
<path d="M855 1571 c-3 -5 -1 -12 4 -15 5 -3 11 1 15 9 6 16 -9 21 -19 6z"/>
<path d="M595 1533 c0 -20 5 -33 13 -33 6 0 12 10 12 23 0 13 4 27 10 33 6 6
1 9 -13 9 -18 0 -22 -6 -22 -32z"/>
<path d="M780 1551 c0 -12 28 -22 35 -12 3 5 -2 12 -11 15 -21 8 -24 8 -24 -3z"/>
<path d="M2063 1553 c-15 -5 -17 -23 -4 -23 5 0 11 7 15 15 3 8 4 15 3 14 -1
0 -8 -3 -14 -6z"/>
<path d="M716 1514 c-8 -20 1 -34 21 -34 10 0 13 6 9 16 -3 9 -6 20 -6 25 0
15 -17 10 -24 -7z"/>
<path d="M770 1520 c0 -6 7 -13 15 -16 8 -4 15 -14 16 -23 0 -9 3 -11 5 -4 3
7 12 9 20 6 8 -3 14 -1 14 5 0 5 9 12 20 15 11 3 20 10 20 16 0 12 -32 2 -42
-13 -5 -7 -17 -5 -38 7 -17 11 -30 14 -30 7z"/>
<path d="M607 1466 c-6 -14 -14 -16 -38 -11 -20 5 -29 3 -25 -3 18 -30 84 -12
74 20 -3 8 -7 6 -11 -6z"/>
<path d="M820 1451 c-28 -30 -43 -51 -34 -50 10 0 58 58 53 63 -2 2 -11 -4
-19 -13z"/>
<path d="M2680 1435 c0 -14 6 -25 14 -25 9 0 12 8 8 25 -2 14 -8 25 -13 25 -5
0 -9 -11 -9 -25z"/>
<path d="M2772 1440 c0 -14 2 -19 5 -12 2 6 2 18 0 25 -3 6 -5 1 -5 -13z"/>
<path d="M2524 1435 c-3 -8 -4 -20 -2 -27 3 -7 7 -1 10 15 6 29 1 36 -8 12z"/>
<path d="M396 1416 c-9 -34 -7 -37 15 -26 11 7 22 10 23 8 2 -2 7 -11 12 -20
9 -16 11 -16 23 5 8 12 10 19 6 15 -9 -8 -35 9 -35 22 0 5 8 10 18 13 9 2 0 4
-20 3 -28 0 -38 -5 -42 -20z m24 -6 c0 -5 -5 -10 -11 -10 -5 0 -7 5 -4 10 3 6
8 10 11 10 2 0 4 -4 4 -10z"/>
<path d="M2345 1430 c-3 -5 -2 -10 4 -10 5 0 13 5 16 10 3 6 2 10 -4 10 -5 0
-13 -4 -16 -10z"/>
<path d="M2725 1400 c-10 -11 -13 -20 -7 -20 6 0 16 9 22 20 6 11 9 20 7 20
-2 0 -12 -9 -22 -20z"/>
<path d="M886 1388 c1 -13 3 -26 3 -30 1 -5 10 -17 22 -29 16 -16 23 -18 35
-9 12 10 10 15 -11 31 -13 11 -27 28 -30 39 -9 27 -22 25 -19 -2z"/>
<path d="M2275 1390 c-4 -6 -11 -8 -16 -5 -5 4 -17 1 -26 -4 -17 -10 -16 -10
2 -11 30 0 65 11 65 21 0 12 -17 11 -25 -1z"/>
<path d="M397 1356 c-4 -10 -1 -13 9 -9 17 6 18 -1 3 -30 -11 -20 -9 -20 13 3
21 22 23 27 9 38 -19 16 -28 15 -34 -2z"/>
<path d="M860 1347 c0 -10 8 -17 18 -17 9 0 13 4 7 8 -5 4 -13 11 -17 16 -5 5
-8 2 -8 -7z"/>
<path d="M1750 1285 c0 -9 6 -12 15 -9 8 4 12 10 9 15 -8 14 -24 10 -24 -6z"/>
<path d="M2755 1280 c-3 -5 -1 -10 4 -10 6 0 11 5 11 10 0 6 -2 10 -4 10 -3 0
-8 -4 -11 -10z"/>
<path d="M2500 1246 c0 -2 9 -6 20 -9 11 -3 18 -1 14 4 -5 9 -34 13 -34 5z"/>
<path d="M2760 1243 c0 -6 5 -15 10 -18 8 -5 7 -12 -2 -23 -10 -12 -10 -14 0
-8 17 10 29 -24 11 -35 -11 -7 -10 -9 6 -10 11 0 14 -3 8 -6 -7 -2 -13 -17
-13 -31 0 -46 -13 -57 -50 -42 -29 12 -33 11 -58 -13 -24 -25 -24 -26 -4 -20
12 3 22 8 22 12 0 4 20 7 45 7 39 -1 45 -4 45 -22 0 -12 -7 -25 -16 -28 -8 -3
-13 -10 -9 -16 7 -11 -21 -70 -34 -70 -4 0 -14 -11 -21 -25 -7 -13 -16 -22
-20 -20 -8 5 -23 -33 -21 -49 1 -4 -4 -14 -10 -22 -9 -11 -8 -14 2 -14 22 0
36 13 36 32 0 28 46 88 64 83 9 -3 21 0 26 7 13 17 23 69 12 62 -5 -3 -9 -13
-9 -23 0 -10 -8 -25 -17 -32 -16 -12 -17 -12 -6 2 7 9 10 19 7 22 -4 3 4 23
17 44 13 21 24 51 25 68 4 65 5 111 2 126 -5 21 -47 77 -48 62z"/>
<path d="M2725 1221 c5 -15 2 -21 -9 -21 -9 0 -16 5 -16 10 0 6 -7 10 -15 10
-8 0 -15 -6 -15 -14 0 -15 -30 -26 -73 -26 -16 0 -26 4 -22 10 3 6 2 10 -3 10
-15 0 -21 -38 -7 -44 7 -2 16 -2 20 2 4 4 19 7 34 8 15 0 31 3 36 6 24 14 69
18 75 8 4 -6 7 2 8 19 0 17 -4 34 -10 37 -6 4 -8 -1 -3 -15z"/>
<path d="M610 1200 c14 -4 19 -8 12 -9 -10 -1 -9 -5 3 -17 14 -15 14 -17 -2
-31 -16 -13 -16 -13 7 -2 18 9 25 9 28 0 2 -6 10 -11 18 -11 12 0 12 -4 4 -20
-6 -12 -21 -20 -36 -20 -14 0 -23 -4 -20 -9 7 -10 25 -9 43 2 6 4 17 6 25 4 7
-2 10 -2 6 0 -15 9 -7 30 15 41 20 10 21 11 2 11 -24 1 -78 35 -69 44 3 3 12
3 20 0 8 -3 14 -1 14 5 0 5 -14 12 -31 16 -43 8 -70 6 -39 -4z"/>
<path d="M2463 1188 c-6 -7 -20 -42 -31 -78 -18 -55 -20 -86 -18 -201 2 -75 8
-145 14 -156 8 -14 8 -23 0 -31 -11 -11 -5 -49 22 -147 6 -22 12 -48 15 -57 2
-9 9 -26 15 -37 6 -12 8 -21 5 -21 -4 0 3 -15 14 -34 12 -19 21 -38 20 -43 -1
-4 0 -15 4 -23 19 -52 27 -89 27 -131 0 -26 3 -50 8 -52 13 -8 52 12 59 30 4
10 11 21 16 24 14 10 -2 68 -23 81 -10 6 -16 18 -13 25 4 10 -2 13 -23 11 -24
-3 -28 0 -27 22 0 14 4 34 8 44 6 13 3 29 -7 47 -12 20 -13 29 -5 33 7 2 4 5
-5 5 -20 1 -23 14 -8 42 9 16 5 23 -29 46 -22 16 -40 32 -41 37 0 5 9 1 19 -8
19 -17 19 -17 14 3 -3 12 -11 21 -17 21 -12 0 -28 25 -40 64 -5 16 -2 17 21
12 50 -12 58 -11 58 4 0 10 -10 15 -27 15 -43 1 -43 12 -1 33 38 20 44 22 64
22 5 0 8 4 4 9 -3 5 -1 12 3 15 5 3 7 18 4 33 l-6 28 -6 -33 c-3 -18 -8 -33
-13 -32 -4 0 -24 -9 -44 -20 -35 -19 -38 -19 -47 -2 -14 25 -14 278 1 293 6 6
9 18 6 25 -3 8 0 14 5 14 6 0 12 12 14 28 3 24 7 27 36 25 21 -1 32 3 29 10
-5 17 -62 20 -74 5z m53 -655 c-11 -11 -36 7 -36 27 0 20 0 20 21 -1 11 -11
18 -23 15 -26z m-1 -49 c17 -41 20 -63 6 -48 -10 10 -32 84 -25 84 2 0 11 -16
19 -36z m60 -164 c3 -5 1 -10 -4 -10 -6 0 -11 5 -11 10 0 6 2 10 4 10 3 0 8
-4 11 -10z m25 -61 c0 -6 -5 -7 -10 -4 -7 4 -8 -3 -4 -21 5 -19 4 -25 -5 -20
-12 8 -15 48 -5 59 9 8 24 -1 24 -14z m12 -21 c-8 -8 -9 -4 -5 13 4 13 8 18
11 10 2 -7 -1 -18 -6 -23z"/>
<path d="M2570 1130 c0 -5 5 -10 11 -10 5 0 7 5 4 10 -3 6 -8 10 -11 10 -2 0
-4 -4 -4 -10z"/>
<path d="M638 1113 c7 -3 16 -2 19 1 4 3 -2 6 -13 5 -11 0 -14 -3 -6 -6z"/>
<path d="M2490 1082 c6 -13 14 -21 18 -18 3 4 -2 14 -12 24 -18 16 -18 16 -6
-6z"/>
<path d="M2588 1091 c11 -7 10 -10 -3 -15 -9 -3 -22 -3 -27 1 -6 3 -8 1 -5 -4
8 -13 62 -12 74 1 4 5 3 6 -3 3 -7 -4 -14 0 -18 8 -3 8 -11 15 -18 15 -10 0
-10 -2 0 -9z"/>
<path d="M2740 1089 c0 -5 5 -7 10 -4 6 3 10 8 10 11 0 2 -4 4 -10 4 -5 0 -10
-5 -10 -11z"/>
<path d="M413 1061 c0 -11 5 -18 9 -15 4 3 5 11 1 19 -7 21 -12 19 -10 -4z"/>
<path d="M594 1065 c10 -8 24 -16 30 -18 7 -3 7 -9 -3 -20 -11 -14 -17 -15
-28 -5 -11 9 -17 8 -29 -4 -14 -14 -13 -15 10 -11 15 3 26 1 26 -6 0 -22 18
-10 30 19 12 28 14 29 26 13 7 -10 13 -13 14 -8 0 20 -16 33 -55 43 -35 10
-38 10 -21 -3z"/>
<path d="M2520 1051 c0 -12 25 -21 84 -31 42 -6 47 -6 32 5 -10 8 -26 12 -37
10 -10 -2 -19 1 -19 6 0 6 -4 7 -10 4 -5 -3 -19 -1 -30 5 -11 6 -20 7 -20 1z"/>
<path d="M668 989 c-16 -4 -28 -4 -28 -1 0 4 -5 -1 -11 -10 -9 -17 -12 -17
-34 -2 -23 15 -25 15 -25 0 0 -9 8 -16 21 -16 11 0 17 -5 14 -10 -4 -6 5 -5
19 2 14 6 26 15 26 19 0 21 35 -2 44 -29 13 -36 32 -58 22 -24 -4 12 -9 33
-10 47 -3 32 -6 34 -38 24z"/>
<path d="M2636 982 c-13 -21 -34 -97 -29 -104 3 -5 -1 -17 -9 -26 -15 -18 -18
-98 -4 -120 4 -7 2 -12 -4 -12 -7 0 -8 -19 -4 -57 4 -32 7 -68 8 -80 1 -12 4
-24 8 -28 4 -4 5 -12 3 -18 -2 -7 -6 -28 -9 -47 -5 -31 -4 -33 8 -17 13 17 46
14 46 -4 0 -6 10 -20 21 -32 l22 -22 -8 25 c-11 33 -11 118 0 155 13 42 13
185 0 183 -5 -1 -9 -8 -7 -15 2 -8 -3 -10 -15 -6 -17 7 -17 5 -2 -17 9 -14 15
-34 13 -45 -2 -11 -5 -38 -8 -60 -9 -80 -19 -126 -27 -131 -5 -3 -9 -2 -10 3
0 4 -2 17 -5 28 -12 56 -14 189 -4 221 14 40 6 59 -9 23 -9 -21 -10 -19 -8 16
1 22 8 46 15 53 7 8 10 18 6 23 -3 5 -3 28 1 49 5 30 12 40 25 40 10 0 21 6
24 13 5 10 7 10 12 0 8 -18 25 -16 18 2 -6 16 -59 21 -68 7z"/>
<path d="M2680 939 c0 -5 5 -7 10 -4 6 3 10 8 10 11 0 2 -4 4 -10 4 -5 0 -10
-5 -10 -11z"/>
<path d="M384 838 c2 -24 13 -68 23 -98 11 -30 18 -60 16 -67 -3 -7 1 -20 7
-30 10 -16 11 -16 6 -1 -3 12 -1 15 9 11 12 -4 14 1 9 25 -4 17 -1 32 5 36 6
4 9 11 6 16 -3 4 2 13 10 20 8 7 15 23 15 36 0 15 5 22 13 18 8 -3 13 -17 12
-33 -2 -31 11 -35 39 -12 25 21 19 39 -14 46 -16 4 -30 11 -30 16 0 6 -4 7
-10 4 -6 -3 -7 1 -4 9 3 9 1 16 -5 16 -6 0 -11 -4 -11 -10 0 -18 -19 -10 -25
11 -6 17 -9 19 -16 8 -6 -9 -3 -18 8 -26 8 -7 17 -28 20 -48 3 -31 1 -35 -19
-35 -21 0 -21 0 -2 -15 17 -13 18 -14 1 -15 -18 0 -21 5 -32 53 -3 18 -2 26 4
23 5 -4 9 3 8 14 -1 12 -6 19 -14 16 -8 -4 -13 3 -13 19 0 13 -5 27 -10 30 -7
4 -9 -9 -6 -37z"/>
<path d="M648 792 c-11 -13 -10 -15 9 -10 25 7 52 -15 33 -27 -6 -4 -16 -2
-23 3 -7 5 -30 12 -52 15 -39 6 -39 6 -15 -8 15 -9 19 -14 10 -15 -8 0 -32
-16 -54 -36 -39 -36 -50 -37 -51 -4 0 24 -20 26 -21 2 0 -9 -5 -28 -11 -42
-12 -29 -7 -50 13 -50 8 0 17 -7 20 -15 4 -8 9 -13 13 -11 3 2 11 -7 18 -20 6
-13 7 -22 2 -18 -5 3 -9 -4 -9 -15 0 -12 -4 -21 -10 -21 -5 0 -7 7 -4 15 4 8
2 15 -4 15 -5 0 -13 11 -16 25 -4 14 -11 25 -16 25 -12 0 -33 -48 -32 -73 0
-9 -2 -16 -6 -13 -4 2 -7 -7 -7 -20 0 -13 5 -24 12 -24 18 0 63 -22 63 -31 0
-4 -7 -10 -16 -13 -12 -4 -15 -2 -10 9 9 26 -12 16 -36 -15 -15 -21 -24 -26
-30 -18 -5 9 -10 1 -14 -20 -5 -24 -10 -30 -17 -23 -8 8 -7 15 1 23 19 19 14
30 -10 24 -13 -3 -17 -3 -10 0 6 3 12 14 12 25 0 14 7 19 28 19 26 1 27 1 7
16 -14 11 -16 18 -7 21 17 7 15 23 -3 23 -9 0 -18 -7 -20 -15 -3 -8 -8 -23
-12 -32 -3 -10 -7 -22 -9 -28 -1 -5 -7 -24 -12 -41 -13 -40 12 -64 65 -64 l36
0 -25 -23 c-14 -13 -29 -35 -33 -48 -14 -46 -64 -83 -52 -39 4 17 2 18 -14 10
-11 -6 -16 -16 -12 -26 4 -12 14 -14 44 -9 36 6 38 5 46 -25 7 -27 11 -30 21
-18 10 12 8 20 -8 41 -24 30 -20 44 29 112 20 27 36 53 36 58 0 4 6 12 14 16
8 5 9 11 3 15 -14 9 -42 -4 -42 -19 0 -7 -7 -16 -16 -19 -43 -17 -46 6 -4 30
21 13 26 20 17 26 -18 12 10 10 32 -2 14 -7 23 -4 37 13 19 22 21 67 4 67 -5
0 -6 -8 -3 -17 6 -14 2 -14 -23 4 -16 11 -34 18 -40 16 -13 -4 -6 65 8 73 5 3
14 -8 21 -25 10 -29 15 -31 52 -30 40 2 125 34 125 48 0 12 -79 41 -95 35 -8
-3 -20 -2 -26 2 -9 5 -6 10 10 15 18 7 20 12 11 29 -6 11 -17 20 -25 20 -8 0
-15 3 -15 8 1 17 16 29 35 26 11 -2 29 7 40 19 13 14 34 23 59 25 51 3 73 30
43 52 -30 20 -44 21 -59 2z m-133 -145 c0 -7 6 -13 13 -13 25 -3 27 -5 10 -15
-22 -12 -61 22 -51 46 4 12 9 13 17 5 6 -6 11 -16 11 -23z m104 -81 c9 -6 8
-13 -5 -27 -24 -27 -41 -24 -46 10 -4 25 -1 28 17 26 12 -1 27 -5 34 -9z"/>
<path d="M1817 752 c4 -9 0 -12 -12 -10 -10 2 -20 -3 -22 -9 -4 -10 5 -9 35 1
22 8 43 12 46 9 3 -4 6 -2 6 4 0 6 -13 13 -29 15 -22 3 -28 1 -24 -10z"/>
<path d="M1902 750 c-12 -10 -28 -20 -35 -23 -6 -2 -9 -7 -5 -11 3 -4 21 6 40
23 36 33 37 42 0 11z"/>
<path d="M2526 751 c-8 -12 3 -41 15 -41 5 0 9 5 9 10 0 6 -5 10 -11 10 -6 0
-9 7 -5 15 6 16 1 20 -8 6z"/>
<path d="M714 713 c7 -22 -7 -33 -18 -14 -8 13 -56 0 -56 -15 0 -8 -4 -14 -10
-14 -5 0 -10 -5 -10 -10 0 -14 70 -2 90 15 8 7 21 14 28 16 10 3 7 10 -9 24
l-22 20 7 -22z"/>
<path d="M1744 678 c-97 -187 -139 -292 -125 -315 7 -12 10 -13 11 -4 0 8 9
32 19 55 11 23 32 72 46 110 15 38 33 76 41 83 8 8 14 19 14 24 0 6 5 7 12 3
7 -4 8 -3 4 5 -4 6 -2 18 4 27 11 12 15 12 27 -3 14 -17 14 -17 9 0 -4 13 0
17 19 17 14 0 25 4 25 9 0 5 -22 8 -49 7 -34 -1 -51 -6 -57 -18z"/>
<path d="M1907 608 c-8 -13 -33 -56 -57 -96 -23 -40 -46 -75 -51 -78 -15 -9
-10 -21 9 -26 12 -3 24 2 31 15 11 17 11 19 -3 14 -23 -9 -20 5 9 44 13 19 30
44 36 57 19 34 27 26 27 -24 0 -37 -3 -47 -19 -51 -18 -5 -19 -6 -2 -19 17
-13 17 -13 -3 -14 -25 0 -49 -24 -39 -40 13 -21 34 -9 65 38 29 44 31 51 24
102 -4 30 -7 65 -6 78 0 12 -2 22 -4 22 -2 0 -10 -10 -17 -22z"/>
<path d="M421 583 c-8 -21 -16 -45 -19 -53 -5 -12 -3 -12 10 1 15 14 36 89 26
89 -2 0 -10 -17 -17 -37z"/>
<path d="M696 603 c-9 -22 8 -37 21 -21 8 9 7 16 -2 25 -10 10 -15 9 -19 -4z"/>
<path d="M2547 531 c-4 -17 -3 -21 5 -13 5 5 8 16 6 23 -3 8 -7 3 -11 -10z"/>
<path d="M631 490 l-24 -18 21 -11 c18 -10 22 -9 22 4 0 9 5 13 11 9 7 -4 7
-10 1 -16 -6 -6 -8 -17 -5 -24 3 -9 -1 -14 -12 -14 -9 0 -13 5 -10 10 3 6 1
10 -4 10 -6 0 -11 -9 -11 -21 0 -13 4 -18 13 -13 9 6 9 4 -1 -8 -8 -10 -9 -19
-3 -22 5 -3 11 0 14 6 3 8 9 1 16 -15 9 -24 13 -26 30 -15 24 15 40 3 21 -15
-10 -9 -11 -9 -6 1 4 6 2 12 -3 12 -15 0 -14 -36 2 -38 6 0 26 -3 42 -5 28 -5
45 6 45 28 0 6 -5 3 -10 -5 -8 -13 -10 -12 -10 3 0 15 -11 22 -32 18 -5 0 -8
3 -8 9 0 6 -7 10 -15 10 -8 0 -15 6 -15 14 0 8 -7 16 -15 20 -20 7 -19 26 1
26 11 0 15 6 11 20 -3 12 1 24 11 30 10 5 12 10 5 10 -21 0 -27 2 -43 10 -10
5 -24 2 -39 -10z"/>
<path d="M742 481 c-11 -7 -11 -9 0 -14 9 -3 15 1 15 9 0 8 -1 14 -1 14 -1 0
-7 -4 -14 -9z"/>
<path d="M581 461 c-11 -7 -10 -14 5 -37 l19 -28 3 28 c4 33 -7 49 -27 37z"/>
<path d="M752 449 c-12 -10 -28 -19 -37 -19 -18 0 -20 -11 -4 -27 9 -9 18 -5
36 13 30 30 46 22 41 -22 -3 -24 0 -34 10 -34 24 0 72 40 72 60 0 18 -36 38
-47 26 -4 -3 -16 0 -28 8 -20 13 -25 13 -43 -5z m88 -35 c0 -9 -5 -14 -12 -12
-18 6 -21 28 -4 28 9 0 16 -7 16 -16z"/>
<path d="M2590 435 c0 -8 6 -15 13 -15 8 0 14 7 14 15 0 8 -6 15 -14 15 -7 0
-13 -7 -13 -15z"/>
<path d="M2606 408 c-18 -10 -7 -48 20 -76 15 -15 18 -14 35 7 19 23 26 70 12
72 -5 0 -18 2 -30 3 -12 1 -29 -1 -37 -6z m44 -38 c0 -5 -2 -10 -4 -10 -3 0
-8 5 -11 10 -3 6 -1 10 4 10 6 0 11 -4 11 -10z"/>
<path d="M1583 343 c-19 -44 -20 -77 -3 -81 11 -2 15 7 15 35 1 21 5 46 9 56
5 9 4 17 0 17 -5 0 -14 -12 -21 -27z"/>
<path d="M322 328 c-5 -7 -22 -42 -37 -78 -15 -36 -34 -73 -43 -82 -9 -11 -11
-18 -4 -18 6 0 16 9 22 20 6 11 16 18 21 14 6 -4 4 -12 -5 -23 -23 -25 -20
-37 4 -16 15 14 19 26 15 46 -4 17 3 46 20 84 25 57 28 78 7 53z"/>
<path d="M634 288 c2 -29 10 -70 19 -90 17 -40 47 -52 47 -18 0 11 0 23 1 27
0 4 -5 9 -12 12 -7 2 -9 -1 -5 -8 4 -6 3 -11 -3 -11 -6 0 -7 14 -4 34 3 19 0
43 -8 57 -7 13 -13 28 -14 33 0 5 -5 11 -12 13 -9 3 -11 -11 -9 -49z"/>
<path d="M1606 325 c-3 -8 -1 -15 4 -15 6 0 10 7 10 15 0 8 -2 15 -4 15 -2 0
-6 -7 -10 -15z"/>
<path d="M1630 331 c0 -17 18 -21 24 -6 3 9 0 15 -9 15 -8 0 -15 -4 -15 -9z"/>
<path d="M366 307 c3 -8 -2 -20 -11 -27 -8 -7 -15 -17 -15 -23 0 -5 9 -2 20 8
22 20 26 40 10 50 -5 3 -7 0 -4 -8z"/>
<path d="M1660 309 c0 -5 5 -7 10 -4 6 3 10 8 10 11 0 2 -4 4 -10 4 -5 0 -10
-5 -10 -11z"/>
<path d="M730 282 l-21 -17 25 -24 c27 -25 38 -94 15 -89 -6 2 -14 -3 -16 -9
-3 -9 5 -13 22 -13 22 0 26 4 22 19 -3 14 -1 18 9 14 11 -4 14 5 14 35 0 58
-15 93 -36 85 -12 -4 -15 -3 -10 5 10 17 2 15 -24 -6z m37 -39 c-3 -3 -11 -2
-17 2 -9 6 -9 10 1 16 14 8 27 -7 16 -18z"/>
<path d="M1630 254 l-35 -13 32 0 c17 -1 34 5 36 12 4 10 6 10 6 0 1 -7 6 -13
12 -13 5 0 8 4 5 9 -4 5 0 12 6 14 29 12 -30 3 -62 -9z"/>
<path d="M472 138 c3 -7 -6 -21 -19 -31 -19 -15 -27 -17 -38 -7 -9 8 -15 8
-15 2 0 -6 -14 -8 -32 -6 -96 12 -113 16 -125 26 -10 8 -13 5 -13 -15 0 -58
34 -77 62 -35 13 20 18 20 61 10 65 -17 83 -15 111 12 26 24 35 56 15 56 -6 0
-9 -6 -7 -12z"/>
<path d="M674 135 c2 -11 7 -46 11 -78 4 -38 11 -57 20 -57 8 0 17 4 20 10 3
6 2 10 -3 10 -6 0 -13 16 -16 36 -4 19 -10 42 -13 50 -3 8 1 14 11 14 17 0 22
15 7 25 -5 3 -13 0 -17 -6 -4 -8 -9 -7 -16 2 -7 10 -8 9 -4 -6z"/>
<path d="M784 127 c-3 -9 -3 -29 2 -45 4 -15 6 -31 6 -35 -3 -12 18 -47 27
-47 5 0 3 21 -5 47 -8 26 -12 53 -10 59 2 6 0 17 -4 25 -7 11 -10 10 -16 -4z"/>
<path d="M743 23 c1 -17 5 -20 19 -12 10 5 18 12 18 15 0 3 -5 2 -11 -2 -6 -3
-15 0 -20 7 -6 10 -8 8 -6 -8z"/>
</g>
</svg>
